solid gripper_collision_2
   facet normal 0.000000e+000 -4.902533e-001 -8.715800e-001
      outer loop
         vertex 8.121999e-002 -1.665042e-002 -3.415793e-002
         vertex 1.192200e-001 -1.665042e-002 -3.415793e-002
         vertex 1.192200e-001 -2.054435e-002 -3.196764e-002
      endloop
   endfacet
   facet normal -6.161791e-003 6.008747e-001 7.993194e-001
      outer loop
         vertex 1.217000e-001 2.054435e-002 3.196763e-002
         vertex 1.217000e-001 2.500000e-002 2.861817e-002
         vertex 2.738216e-011 2.871848e-002 2.488470e-002
      endloop
   endfacet
   facet normal 1.275400e-002 6.548074e-001 7.556882e-001
      outer loop
         vertex 1.650000e-001 2.054435e-002 3.196763e-002
         vertex 1.650000e-001 2.871848e-002 2.488470e-002
         vertex 1.347000e-001 2.500000e-002 2.861817e-002
      endloop
   endfacet
   facet normal 0.000000e+000 6.548606e-001 7.557496e-001
      outer loop
         vertex 2.738216e-011 2.871848e-002 2.488470e-002
         vertex 2.738217e-011 2.054435e-002 3.196763e-002
         vertex 1.217000e-001 2.054435e-002 3.196763e-002
      endloop
   endfacet
   facet normal 0.000000e+000 4.154150e-001 9.096320e-001
      outer loop
         vertex 1.217000e-001 2.054435e-002 3.196763e-002
         vertex 2.738217e-011 2.054435e-002 3.196763e-002
         vertex 2.738217e-011 1.070583e-002 3.646072e-002
      endloop
   endfacet
   facet normal 0.000000e+000 4.154150e-001 9.096320e-001
      outer loop
         vertex 1.217000e-001 2.054435e-002 3.196763e-002
         vertex 2.738217e-011 1.070583e-002 3.646072e-002
         vertex 1.217000e-001 1.070583e-002 3.646072e-002
      endloop
   endfacet
   facet normal 0.000000e+000 1.423149e-001 9.898214e-001
      outer loop
         vertex 1.217000e-001 1.070583e-002 3.646072e-002
         vertex 2.738217e-011 1.070583e-002 3.646072e-002
         vertex 2.738217e-011 -2.657760e-009 3.799999e-002
      endloop
   endfacet
   facet normal -1.741561e-018 1.423149e-001 9.898214e-001
      outer loop
         vertex 1.217000e-001 1.070583e-002 3.646072e-002
         vertex 2.738217e-011 -2.657760e-009 3.799999e-002
         vertex 1.217000e-001 -2.657760e-009 3.799999e-002
      endloop
   endfacet
   facet normal 0.000000e+000 -1.423149e-001 9.898214e-001
      outer loop
         vertex 1.217000e-001 -2.657760e-009 3.799999e-002
         vertex 2.738217e-011 -2.657760e-009 3.799999e-002
         vertex 2.738217e-011 -1.070584e-002 3.646072e-002
      endloop
   endfacet
   facet normal 1.741561e-018 -1.423149e-001 9.898214e-001
      outer loop
         vertex 1.217000e-001 -2.657760e-009 3.799999e-002
         vertex 2.738217e-011 -1.070584e-002 3.646072e-002
         vertex 1.217000e-001 -1.070584e-002 3.646072e-002
      endloop
   endfacet
   facet normal 0.000000e+000 -4.154151e-001 9.096320e-001
      outer loop
         vertex 1.217000e-001 -1.070584e-002 3.646072e-002
         vertex 2.738217e-011 -1.070584e-002 3.646072e-002
         vertex 2.738217e-011 -2.054435e-002 3.196763e-002
      endloop
   endfacet
   facet normal 0.000000e+000 -4.154151e-001 9.096320e-001
      outer loop
         vertex 1.217000e-001 -1.070584e-002 3.646072e-002
         vertex 2.738217e-011 -2.054435e-002 3.196763e-002
         vertex 1.217000e-001 -2.054435e-002 3.196763e-002
      endloop
   endfacet
   facet normal 2.474173e-002 -6.007022e-001 7.990900e-001
      outer loop
         vertex 1.347000e-001 -2.054435e-002 3.196763e-002
         vertex 1.347000e-001 -2.500000e-002 2.861817e-002
         vertex 1.650000e-001 -2.871849e-002 2.488470e-002
      endloop
   endfacet
   facet normal -3.397220e-017 -7.085271e-001 7.056836e-001
      outer loop
         vertex 1.650000e-001 -2.871849e-002 2.488470e-002
         vertex 1.347000e-001 -2.500000e-002 2.861817e-002
         vertex 1.217000e-001 -2.500000e-002 2.861817e-002
      endloop
   endfacet
   facet normal 2.947090e-017 -6.548606e-001 7.557496e-001
      outer loop
         vertex 1.650000e-001 -2.871849e-002 2.488470e-002
         vertex 1.650000e-001 -2.054435e-002 3.196763e-002
         vertex 1.347000e-001 -2.054435e-002 3.196763e-002
      endloop
   endfacet
   facet normal 0.000000e+000 -4.154151e-001 9.096320e-001
      outer loop
         vertex 1.347000e-001 -2.054435e-002 3.196763e-002
         vertex 1.650000e-001 -2.054435e-002 3.196763e-002
         vertex 1.650000e-001 -1.070584e-002 3.646072e-002
      endloop
   endfacet
   facet normal 0.000000e+000 -4.154151e-001 9.096320e-001
      outer loop
         vertex 1.347000e-001 -2.054435e-002 3.196763e-002
         vertex 1.650000e-001 -1.070584e-002 3.646072e-002
         vertex 1.347000e-001 -1.070584e-002 3.646072e-002
      endloop
   endfacet
   facet normal 0.000000e+000 -2.776012e-001 9.606964e-001
      outer loop
         vertex 1.347000e-001 -1.070584e-002 3.646072e-002
         vertex 1.650000e-001 -1.070584e-002 3.646072e-002
         vertex 1.650000e-001 -1.039152e-002 3.655155e-002
      endloop
   endfacet
   facet normal 0.000000e+000 -2.776012e-001 9.606964e-001
      outer loop
         vertex 1.347000e-001 -1.070584e-002 3.646072e-002
         vertex 1.650000e-001 -1.039152e-002 3.655155e-002
         vertex 1.347000e-001 -1.039152e-002 3.655155e-002
      endloop
   endfacet
   facet normal 0.000000e+000 2.776012e-001 9.606964e-001
      outer loop
         vertex 1.347000e-001 1.070583e-002 3.646072e-002
         vertex 1.347000e-001 1.039151e-002 3.655155e-002
         vertex 1.650000e-001 1.039151e-002 3.655155e-002
      endloop
   endfacet
   facet normal 1.411067e-017 6.008861e-001 7.993346e-001
      outer loop
         vertex 1.347000e-001 2.500000e-002 2.861817e-002
         vertex 1.347000e-001 2.054435e-002 3.196763e-002
         vertex 1.650000e-001 2.054435e-002 3.196763e-002
      endloop
   endfacet
   facet normal 0.000000e+000 4.154150e-001 9.096320e-001
      outer loop
         vertex 1.650000e-001 2.054435e-002 3.196763e-002
         vertex 1.347000e-001 2.054435e-002 3.196763e-002
         vertex 1.347000e-001 1.070583e-002 3.646072e-002
      endloop
   endfacet
   facet normal 0.000000e+000 4.154150e-001 9.096320e-001
      outer loop
         vertex 1.650000e-001 2.054435e-002 3.196763e-002
         vertex 1.347000e-001 1.070583e-002 3.646072e-002
         vertex 1.650000e-001 1.070583e-002 3.646072e-002
      endloop
   endfacet
   facet normal 0.000000e+000 2.776012e-001 9.606964e-001
      outer loop
         vertex 1.650000e-001 1.070583e-002 3.646072e-002
         vertex 1.347000e-001 1.070583e-002 3.646072e-002
         vertex 1.650000e-001 1.039151e-002 3.655155e-002
      endloop
   endfacet
   facet normal 3.500075e-018 1.423149e-001 -9.898214e-001
      outer loop
         vertex 2.738216e-011 1.070583e-002 -3.646074e-002
         vertex 8.121999e-002 -2.657760e-009 -3.800001e-002
         vertex 2.738216e-011 -2.657760e-009 -3.800001e-002
      endloop
   endfacet
   facet normal 0.000000e+000 -1.423149e-001 -9.898214e-001
      outer loop
         vertex 2.738216e-011 -2.657760e-009 -3.800001e-002
         vertex 8.121999e-002 -2.657760e-009 -3.800001e-002
         vertex 8.121999e-002 -1.070584e-002 -3.646074e-002
      endloop
   endfacet
   facet normal -3.500075e-018 -1.423149e-001 -9.898214e-001
      outer loop
         vertex 2.738216e-011 -2.657760e-009 -3.800001e-002
         vertex 8.121999e-002 -1.070584e-002 -3.646074e-002
         vertex 2.738216e-011 -1.070584e-002 -3.646074e-002
      endloop
   endfacet
   facet normal 0.000000e+000 -4.154151e-001 -9.096320e-001
      outer loop
         vertex 2.738216e-011 -1.070584e-002 -3.646074e-002
         vertex 8.121999e-002 -1.070584e-002 -3.646074e-002
         vertex 2.738217e-011 -2.054435e-002 -3.196764e-002
      endloop
   endfacet
   facet normal -4.614084e-003 4.154106e-001 -9.096223e-001
      outer loop
         vertex 2.738216e-011 2.054435e-002 -3.196764e-002
         vertex 8.121999e-002 1.665042e-002 -3.415793e-002
         vertex 2.738216e-011 1.070583e-002 -3.646074e-002
      endloop
   endfacet
   facet normal 0.000000e+000 3.612234e-001 -9.324793e-001
      outer loop
         vertex 2.738216e-011 1.070583e-002 -3.646074e-002
         vertex 8.121999e-002 1.665042e-002 -3.415793e-002
         vertex 8.121999e-002 1.070583e-002 -3.646074e-002
      endloop
   endfacet
   facet normal 0.000000e+000 1.423149e-001 -9.898214e-001
      outer loop
         vertex 2.738216e-011 1.070583e-002 -3.646074e-002
         vertex 8.121999e-002 1.070583e-002 -3.646074e-002
         vertex 8.121999e-002 -2.657760e-009 -3.800001e-002
      endloop
   endfacet
   facet normal 1.431542e-002 6.327147e-001 -7.742527e-001
      outer loop
         vertex 1.432000e-001 2.054435e-002 -3.196764e-002
         vertex 1.432000e-001 2.723509e-002 -2.650001e-002
         vertex 1.650000e-001 2.871848e-002 -2.488472e-002
      endloop
   endfacet
   facet normal 0.000000e+000 7.365375e-001 -6.763967e-001
      outer loop
         vertex 1.650000e-001 2.871848e-002 -2.488472e-002
         vertex 1.432000e-001 2.723509e-002 -2.650001e-002
         vertex 1.192200e-001 2.723509e-002 -2.650001e-002
      endloop
   endfacet
   facet normal 3.098395e-017 -4.154151e-001 -9.096320e-001
      outer loop
         vertex 1.650000e-001 -2.054435e-002 -3.196764e-002
         vertex 1.432000e-001 -1.070584e-002 -3.646074e-002
         vertex 1.650000e-001 -1.070584e-002 -3.646074e-002
      endloop
   endfacet
   facet normal -0.000000e+000 -1.423149e-001 -9.898214e-001
      outer loop
         vertex 1.650000e-001 -1.070584e-002 -3.646074e-002
         vertex 1.432000e-001 -1.070584e-002 -3.646074e-002
         vertex 1.432000e-001 -2.657760e-009 -3.800001e-002
      endloop
   endfacet
   facet normal -1.549198e-017 -1.423149e-001 -9.898214e-001
      outer loop
         vertex 1.650000e-001 -1.070584e-002 -3.646074e-002
         vertex 1.432000e-001 -2.657760e-009 -3.800001e-002
         vertex 1.650000e-001 -2.657760e-009 -3.800001e-002
      endloop
   endfacet
   facet normal 0.000000e+000 1.423149e-001 -9.898214e-001
      outer loop
         vertex 1.650000e-001 -2.657760e-009 -3.800001e-002
         vertex 1.432000e-001 -2.657760e-009 -3.800001e-002
         vertex 1.432000e-001 1.070583e-002 -3.646074e-002
      endloop
   endfacet
   facet normal 1.549198e-017 1.423149e-001 -9.898214e-001
      outer loop
         vertex 1.650000e-001 -2.657760e-009 -3.800001e-002
         vertex 1.432000e-001 1.070583e-002 -3.646074e-002
         vertex 1.650000e-001 1.070583e-002 -3.646074e-002
      endloop
   endfacet
   facet normal 0.000000e+000 4.154150e-001 -9.096320e-001
      outer loop
         vertex 1.650000e-001 1.070583e-002 -3.646074e-002
         vertex 1.432000e-001 1.070583e-002 -3.646074e-002
         vertex 1.432000e-001 2.054435e-002 -3.196764e-002
      endloop
   endfacet
   facet normal -3.098395e-017 4.154150e-001 -9.096320e-001
      outer loop
         vertex 1.650000e-001 1.070583e-002 -3.646074e-002
         vertex 1.432000e-001 2.054435e-002 -3.196764e-002
         vertex 1.650000e-001 2.054435e-002 -3.196764e-002
      endloop
   endfacet
   facet normal 0.000000e+000 6.548604e-001 -7.557498e-001
      outer loop
         vertex 1.650000e-001 2.054435e-002 -3.196764e-002
         vertex 1.432000e-001 2.054435e-002 -3.196764e-002
         vertex 1.650000e-001 2.871848e-002 -2.488472e-002
      endloop
   endfacet
   facet normal -7.828128e-003 -3.612124e-001 -9.324507e-001
      outer loop
         vertex 8.121999e-002 -1.070584e-002 -3.646074e-002
         vertex 8.121999e-002 -1.665042e-002 -3.415793e-002
         vertex 2.738217e-011 -2.054435e-002 -3.196764e-002
      endloop
   endfacet
   facet normal 0.000000e+000 -4.902533e-001 -8.715800e-001
      outer loop
         vertex 2.738217e-011 -2.054435e-002 -3.196764e-002
         vertex 8.121999e-002 -1.665042e-002 -3.415793e-002
         vertex 1.192200e-001 -2.054435e-002 -3.196764e-002
      endloop
   endfacet
   facet normal 0.000000e+000 -6.548604e-001 -7.557498e-001
      outer loop
         vertex 2.738217e-011 -2.054435e-002 -3.196764e-002
         vertex 1.192200e-001 -2.054435e-002 -3.196764e-002
         vertex 2.738217e-011 -2.871849e-002 -2.488472e-002
      endloop
   endfacet
   facet normal -2.617909e-003 -6.327774e-001 -7.743294e-001
      outer loop
         vertex 2.738217e-011 -2.871849e-002 -2.488472e-002
         vertex 1.192200e-001 -2.054435e-002 -3.196764e-002
         vertex 1.192200e-001 -2.723509e-002 -2.650001e-002
      endloop
   endfacet
   facet normal 1.143676e-002 -6.548176e-001 -7.557004e-001
      outer loop
         vertex 1.650000e-001 -2.871849e-002 -2.488472e-002
         vertex 1.432000e-001 -2.723509e-002 -2.650001e-002
         vertex 1.650000e-001 -2.054435e-002 -3.196764e-002
      endloop
   endfacet
   facet normal -0.000000e+000 -6.327795e-001 -7.743320e-001
      outer loop
         vertex 1.650000e-001 -2.054435e-002 -3.196764e-002
         vertex 1.432000e-001 -2.723509e-002 -2.650001e-002
         vertex 1.432000e-001 -2.054435e-002 -3.196764e-002
      endloop
   endfacet
   facet normal -0.000000e+000 -4.154151e-001 -9.096320e-001
      outer loop
         vertex 1.650000e-001 -2.054435e-002 -3.196764e-002
         vertex 1.432000e-001 -2.054435e-002 -3.196764e-002
         vertex 1.432000e-001 -1.070584e-002 -3.646074e-002
      endloop
   endfacet
   facet normal 0.000000e+000 -6.008861e-001 7.993346e-001
      outer loop
         vertex 1.217000e-001 -2.054435e-002 3.196763e-002
         vertex 2.738217e-011 -2.054435e-002 3.196763e-002
         vertex 1.217000e-001 -2.500000e-002 2.861817e-002
      endloop
   endfacet
   facet normal -3.175643e-003 -6.548573e-001 7.557458e-001
      outer loop
         vertex 1.217000e-001 -2.500000e-002 2.861817e-002
         vertex 2.738217e-011 -2.054435e-002 3.196763e-002
         vertex 2.738217e-011 -2.871849e-002 2.488470e-002
      endloop
   endfacet
   facet normal -2.650378e-018 -7.085271e-001 7.056836e-001
      outer loop
         vertex 1.217000e-001 -2.500000e-002 2.861817e-002
         vertex 2.738217e-011 -2.871849e-002 2.488470e-002
         vertex 1.650000e-001 -2.871849e-002 2.488470e-002
      endloop
   endfacet
   facet normal 0.000000e+000 -8.412535e-001 5.406408e-001
      outer loop
         vertex 1.650000e-001 -2.871849e-002 2.488470e-002
         vertex 2.738217e-011 -2.871849e-002 2.488470e-002
         vertex 2.738217e-011 -3.456602e-002 1.578576e-002
      endloop
   endfacet
   facet normal -3.476893e-018 -8.412535e-001 5.406408e-001
      outer loop
         vertex 1.650000e-001 -2.871849e-002 2.488470e-002
         vertex 2.738217e-011 -3.456602e-002 1.578576e-002
         vertex 1.650000e-001 -3.456602e-002 1.578576e-002
      endloop
   endfacet
   facet normal 0.000000e+000 -9.594930e-001 2.817325e-001
      outer loop
         vertex 1.650000e-001 -3.456602e-002 1.578576e-002
         vertex 2.738217e-011 -3.456602e-002 1.578576e-002
         vertex 2.738217e-011 -3.761322e-002 5.407955e-003
      endloop
   endfacet
   facet normal -3.476893e-018 -9.594930e-001 2.817325e-001
      outer loop
         vertex 1.650000e-001 -3.456602e-002 1.578576e-002
         vertex 2.738217e-011 -3.761322e-002 5.407955e-003
         vertex 1.650000e-001 -3.761322e-002 5.407955e-003
      endloop
   endfacet
   facet normal -0.000000e+000 -1.000000e+000 0.000000e+000
      outer loop
         vertex 1.650000e-001 -3.761322e-002 5.407955e-003
         vertex 2.738217e-011 -3.761322e-002 5.407955e-003
         vertex 2.738217e-011 -3.761322e-002 -5.407973e-003
      endloop
   endfacet
   facet normal 0.000000e+000 -1.000000e+000 -0.000000e+000
      outer loop
         vertex 1.650000e-001 -3.761322e-002 5.407955e-003
         vertex 2.738217e-011 -3.761322e-002 -5.407973e-003
         vertex 1.650000e-001 -3.761322e-002 -5.407973e-003
      endloop
   endfacet
   facet normal -0.000000e+000 -9.594930e-001 -2.817325e-001
      outer loop
         vertex 1.650000e-001 -3.761322e-002 -5.407973e-003
         vertex 2.738217e-011 -3.761322e-002 -5.407973e-003
         vertex 2.738217e-011 -3.456602e-002 -1.578578e-002
      endloop
   endfacet
   facet normal 0.000000e+000 -9.594930e-001 -2.817325e-001
      outer loop
         vertex 1.650000e-001 -3.761322e-002 -5.407973e-003
         vertex 2.738217e-011 -3.456602e-002 -1.578578e-002
         vertex 1.650000e-001 -3.456602e-002 -1.578578e-002
      endloop
   endfacet
   facet normal -0.000000e+000 -8.412535e-001 -5.406408e-001
      outer loop
         vertex 1.650000e-001 -3.456602e-002 -1.578578e-002
         vertex 2.738217e-011 -3.456602e-002 -1.578578e-002
         vertex 2.738217e-011 -2.871849e-002 -2.488472e-002
      endloop
   endfacet
   facet normal 3.476893e-018 -8.412535e-001 -5.406408e-001
      outer loop
         vertex 1.650000e-001 -3.456602e-002 -1.578578e-002
         vertex 2.738217e-011 -2.871849e-002 -2.488472e-002
         vertex 1.650000e-001 -2.871849e-002 -2.488472e-002
      endloop
   endfacet
   facet normal -0.000000e+000 -7.365375e-001 -6.763967e-001
      outer loop
         vertex 1.650000e-001 -2.871849e-002 -2.488472e-002
         vertex 2.738217e-011 -2.871849e-002 -2.488472e-002
         vertex 1.192200e-001 -2.723509e-002 -2.650001e-002
      endloop
   endfacet
   facet normal 0.000000e+000 -7.365375e-001 -6.763967e-001
      outer loop
         vertex 1.650000e-001 -2.871849e-002 -2.488472e-002
         vertex 1.192200e-001 -2.723509e-002 -2.650001e-002
         vertex 1.432000e-001 -2.723509e-002 -2.650001e-002
      endloop
   endfacet
   facet normal 0.000000e+000 4.902533e-001 -8.715800e-001
      outer loop
         vertex 1.192200e-001 1.665042e-002 -3.415793e-002
         vertex 8.121999e-002 1.665042e-002 -3.415793e-002
         vertex 1.192200e-001 2.054435e-002 -3.196764e-002
      endloop
   endfacet
   facet normal 0.000000e+000 4.902533e-001 -8.715800e-001
      outer loop
         vertex 1.192200e-001 2.054435e-002 -3.196764e-002
         vertex 8.121999e-002 1.665042e-002 -3.415793e-002
         vertex 2.738216e-011 2.054435e-002 -3.196764e-002
      endloop
   endfacet
   facet normal 0.000000e+000 6.327795e-001 -7.743320e-001
      outer loop
         vertex 1.192200e-001 2.054435e-002 -3.196764e-002
         vertex 2.738216e-011 2.054435e-002 -3.196764e-002
         vertex 1.192200e-001 2.723509e-002 -2.650001e-002
      endloop
   endfacet
   facet normal -2.091405e-003 6.548590e-001 -7.557482e-001
      outer loop
         vertex 1.192200e-001 2.723509e-002 -2.650001e-002
         vertex 2.738216e-011 2.054435e-002 -3.196764e-002
         vertex 2.738216e-011 2.871848e-002 -2.488472e-002
      endloop
   endfacet
   facet normal 0.000000e+000 7.365375e-001 -6.763967e-001
      outer loop
         vertex 1.192200e-001 2.723509e-002 -2.650001e-002
         vertex 2.738216e-011 2.871848e-002 -2.488472e-002
         vertex 1.650000e-001 2.871848e-002 -2.488472e-002
      endloop
   endfacet
   facet normal 0.000000e+000 8.412537e-001 -5.406406e-001
      outer loop
         vertex 1.650000e-001 2.871848e-002 -2.488472e-002
         vertex 2.738216e-011 2.871848e-002 -2.488472e-002
         vertex 2.738216e-011 3.456601e-002 -1.578578e-002
      endloop
   endfacet
   facet normal 0.000000e+000 8.412537e-001 -5.406406e-001
      outer loop
         vertex 1.650000e-001 2.871848e-002 -2.488472e-002
         vertex 2.738216e-011 3.456601e-002 -1.578578e-002
         vertex 1.650000e-001 3.456601e-002 -1.578578e-002
      endloop
   endfacet
   facet normal 0.000000e+000 9.594930e-001 -2.817325e-001
      outer loop
         vertex 1.650000e-001 3.456601e-002 -1.578578e-002
         vertex 2.738216e-011 3.456601e-002 -1.578578e-002
         vertex 2.738216e-011 3.761321e-002 -5.407973e-003
      endloop
   endfacet
   facet normal 0.000000e+000 9.594930e-001 -2.817325e-001
      outer loop
         vertex 1.650000e-001 3.456601e-002 -1.578578e-002
         vertex 2.738216e-011 3.761321e-002 -5.407973e-003
         vertex 1.650000e-001 3.761321e-002 -5.407973e-003
      endloop
   endfacet
   facet normal 0.000000e+000 1.000000e+000 0.000000e+000
      outer loop
         vertex 1.650000e-001 3.761321e-002 -5.407973e-003
         vertex 2.738216e-011 3.761321e-002 -5.407973e-003
         vertex 2.738216e-011 3.761321e-002 5.407955e-003
      endloop
   endfacet
   facet normal 0.000000e+000 1.000000e+000 -0.000000e+000
      outer loop
         vertex 1.650000e-001 3.761321e-002 -5.407973e-003
         vertex 2.738216e-011 3.761321e-002 5.407955e-003
         vertex 1.650000e-001 3.761321e-002 5.407955e-003
      endloop
   endfacet
   facet normal 0.000000e+000 9.594930e-001 2.817325e-001
      outer loop
         vertex 1.650000e-001 3.761321e-002 5.407955e-003
         vertex 2.738216e-011 3.761321e-002 5.407955e-003
         vertex 2.738216e-011 3.456601e-002 1.578576e-002
      endloop
   endfacet
   facet normal 3.476893e-018 9.594930e-001 2.817325e-001
      outer loop
         vertex 1.650000e-001 3.761321e-002 5.407955e-003
         vertex 2.738216e-011 3.456601e-002 1.578576e-002
         vertex 1.650000e-001 3.456601e-002 1.578576e-002
      endloop
   endfacet
   facet normal 0.000000e+000 8.412537e-001 5.406406e-001
      outer loop
         vertex 1.650000e-001 3.456601e-002 1.578576e-002
         vertex 2.738216e-011 3.456601e-002 1.578576e-002
         vertex 2.738216e-011 2.871848e-002 2.488470e-002
      endloop
   endfacet
   facet normal 0.000000e+000 8.412537e-001 5.406406e-001
      outer loop
         vertex 1.650000e-001 3.456601e-002 1.578576e-002
         vertex 2.738216e-011 2.871848e-002 2.488470e-002
         vertex 1.650000e-001 2.871848e-002 2.488470e-002
      endloop
   endfacet
   facet normal 0.000000e+000 7.085271e-001 7.056836e-001
      outer loop
         vertex 1.650000e-001 2.871848e-002 2.488470e-002
         vertex 2.738216e-011 2.871848e-002 2.488470e-002
         vertex 1.217000e-001 2.500000e-002 2.861817e-002
      endloop
   endfacet
   facet normal -3.397220e-017 7.085271e-001 7.056836e-001
      outer loop
         vertex 1.650000e-001 2.871848e-002 2.488470e-002
         vertex 1.217000e-001 2.500000e-002 2.861817e-002
         vertex 1.347000e-001 2.500000e-002 2.861817e-002
      endloop
   endfacet
   facet normal 0.000000e+000 0.000000e+000 -1.000000e+000
      outer loop
         vertex 1.347000e-001 -1.575301e-002 3.655155e-002
         vertex 1.347000e-001 -1.039152e-002 3.655155e-002
         vertex 1.650000e-001 -1.039152e-002 3.655155e-002
      endloop
   endfacet
   facet normal 0.000000e+000 0.000000e+000 -1.000000e+000
      outer loop
         vertex 1.347000e-001 1.039151e-002 3.655155e-002
         vertex 1.347000e-001 1.565983e-002 3.655155e-002
         vertex 1.650000e-001 1.039151e-002 3.655155e-002
      endloop
   endfacet
   facet normal 0.000000e+000 0.000000e+000 -1.000000e+000
      outer loop
         vertex 1.650000e-001 1.039151e-002 3.655155e-002
         vertex 1.347000e-001 1.565983e-002 3.655155e-002
         vertex 2.677000e-001 1.565983e-002 3.655155e-002
      endloop
   endfacet
   facet normal 0.000000e+000 0.000000e+000 -1.000000e+000
      outer loop
         vertex 1.650000e-001 1.039151e-002 3.655155e-002
         vertex 2.677000e-001 1.565983e-002 3.655155e-002
         vertex 1.650000e-001 -1.039152e-002 3.655155e-002
      endloop
   endfacet
   facet normal 0.000000e+000 0.000000e+000 -1.000000e+000
      outer loop
         vertex 1.650000e-001 -1.039152e-002 3.655155e-002
         vertex 2.677000e-001 1.565983e-002 3.655155e-002
         vertex 2.677000e-001 -1.575301e-002 3.655155e-002
      endloop
   endfacet
   facet normal 0.000000e+000 -0.000000e+000 -1.000000e+000
      outer loop
         vertex 1.650000e-001 -1.039152e-002 3.655155e-002
         vertex 2.677000e-001 -1.575301e-002 3.655155e-002
         vertex 1.347000e-001 -1.575301e-002 3.655155e-002
      endloop
   endfacet
   facet normal -0.000000e+000 1.000000e+000 0.000000e+000
      outer loop
         vertex 1.347000e-001 1.565983e-002 5.095084e-002
         vertex 2.677000e-001 1.565983e-002 5.095084e-002
         vertex 1.347000e-001 1.565983e-002 3.655155e-002
      endloop
   endfacet
   facet normal 0.000000e+000 1.000000e+000 0.000000e+000
      outer loop
         vertex 1.347000e-001 1.565983e-002 3.655155e-002
         vertex 2.677000e-001 1.565983e-002 5.095084e-002
         vertex 2.677000e-001 1.565983e-002 3.655155e-002
      endloop
   endfacet
   facet normal 0.000000e+000 0.000000e+000 1.000000e+000
      outer loop
         vertex 1.347000e-001 -1.575301e-002 5.095084e-002
         vertex 2.677000e-001 -1.575301e-002 5.095084e-002
         vertex 1.347000e-001 1.565983e-002 5.095084e-002
      endloop
   endfacet
   facet normal -0.000000e+000 0.000000e+000 1.000000e+000
      outer loop
         vertex 1.347000e-001 1.565983e-002 5.095084e-002
         vertex 2.677000e-001 -1.575301e-002 5.095084e-002
         vertex 2.677000e-001 1.565983e-002 5.095084e-002
      endloop
   endfacet
   facet normal 0.000000e+000 -1.000000e+000 0.000000e+000
      outer loop
         vertex 1.347000e-001 -1.575301e-002 3.655155e-002
         vertex 2.677000e-001 -1.575301e-002 3.655155e-002
         vertex 1.347000e-001 -1.575301e-002 5.095084e-002
      endloop
   endfacet
   facet normal 0.000000e+000 -1.000000e+000 0.000000e+000
      outer loop
         vertex 1.347000e-001 -1.575301e-002 5.095084e-002
         vertex 2.677000e-001 -1.575301e-002 3.655155e-002
         vertex 2.677000e-001 -1.575301e-002 5.095084e-002
      endloop
   endfacet
   facet normal -1.000000e+000 0.000000e+000 -0.000000e+000
      outer loop
         vertex 1.192200e-001 -2.446920e-002 -3.415793e-002
         vertex 1.192200e-001 -2.446920e-002 -5.750001e-002
         vertex 1.192200e-001 -7.500000e-002 -5.750001e-002
      endloop
   endfacet
   facet normal -1.000000e+000 0.000000e+000 -0.000000e+000
      outer loop
         vertex 1.192200e-001 -2.054435e-002 -3.196764e-002
         vertex 1.192200e-001 -1.665042e-002 -3.415793e-002
         vertex 1.192200e-001 -2.446920e-002 -3.415793e-002
      endloop
   endfacet
   facet normal -1.000000e+000 0.000000e+000 0.000000e+000
      outer loop
         vertex 1.192200e-001 -7.500000e-002 -5.750001e-002
         vertex 1.192200e-001 -7.500000e-002 -2.650001e-002
         vertex 1.192200e-001 -2.446920e-002 -3.415793e-002
      endloop
   endfacet
   facet normal -1.000000e+000 0.000000e+000 0.000000e+000
      outer loop
         vertex 1.192200e-001 -2.446920e-002 -3.415793e-002
         vertex 1.192200e-001 -7.500000e-002 -2.650001e-002
         vertex 1.192200e-001 -2.723509e-002 -2.650001e-002
      endloop
   endfacet
   facet normal -1.000000e+000 0.000000e+000 0.000000e+000
      outer loop
         vertex 1.192200e-001 -2.446920e-002 -3.415793e-002
         vertex 1.192200e-001 -2.723509e-002 -2.650001e-002
         vertex 1.192200e-001 -2.054435e-002 -3.196764e-002
      endloop
   endfacet
   facet normal -1.000000e+000 0.000000e+000 0.000000e+000
      outer loop
         vertex 1.192200e-001 2.723509e-002 -2.650001e-002
         vertex 1.192200e-001 2.412863e-002 -3.415793e-002
         vertex 1.192200e-001 2.054435e-002 -3.196764e-002
      endloop
   endfacet
   facet normal -1.000000e+000 0.000000e+000 -0.000000e+000
      outer loop
         vertex 1.192200e-001 2.054435e-002 -3.196764e-002
         vertex 1.192200e-001 2.412863e-002 -3.415793e-002
         vertex 1.192200e-001 1.665042e-002 -3.415793e-002
      endloop
   endfacet
   facet normal -1.000000e+000 0.000000e+000 -0.000000e+000
      outer loop
         vertex 1.192200e-001 2.723509e-002 -2.650001e-002
         vertex 1.192200e-001 7.500000e-002 -2.650001e-002
         vertex 1.192200e-001 2.412863e-002 -3.415793e-002
      endloop
   endfacet
   facet normal -1.000000e+000 0.000000e+000 0.000000e+000
      outer loop
         vertex 1.192200e-001 2.412863e-002 -3.415793e-002
         vertex 1.192200e-001 7.500000e-002 -2.650001e-002
         vertex 1.192200e-001 7.500000e-002 -5.750001e-002
      endloop
   endfacet
   facet normal -1.000000e+000 0.000000e+000 0.000000e+000
      outer loop
         vertex 1.192200e-001 2.412863e-002 -3.415793e-002
         vertex 1.192200e-001 7.500000e-002 -5.750001e-002
         vertex 1.192200e-001 2.412863e-002 -5.750001e-002
      endloop
   endfacet
   facet normal 1.000000e+000 0.000000e+000 0.000000e+000
      outer loop
         vertex 1.650000e-001 2.054435e-002 3.196763e-002
         vertex 1.650000e-001 1.070583e-002 3.646072e-002
         vertex 1.650000e-001 -1.070584e-002 -3.646074e-002
      endloop
   endfacet
   facet normal 1.000000e+000 0.000000e+000 0.000000e+000
      outer loop
         vertex 1.650000e-001 3.456601e-002 -1.578578e-002
         vertex 1.650000e-001 3.761321e-002 -5.407973e-003
         vertex 1.650000e-001 3.761321e-002 5.407955e-003
      endloop
   endfacet
   facet normal 1.000000e+000 0.000000e+000 0.000000e+000
      outer loop
         vertex 1.650000e-001 2.054435e-002 3.196763e-002
         vertex 1.650000e-001 -1.070584e-002 -3.646074e-002
         vertex 1.650000e-001 2.871848e-002 2.488470e-002
      endloop
   endfacet
   facet normal 1.000000e+000 0.000000e+000 0.000000e+000
      outer loop
         vertex 1.650000e-001 1.070583e-002 3.646072e-002
         vertex 1.650000e-001 1.039151e-002 3.655155e-002
         vertex 1.650000e-001 -1.070584e-002 -3.646074e-002
      endloop
   endfacet
   facet normal 1.000000e+000 0.000000e+000 0.000000e+000
      outer loop
         vertex 1.650000e-001 -1.070584e-002 -3.646074e-002
         vertex 1.650000e-001 1.039151e-002 3.655155e-002
         vertex 1.650000e-001 -1.039152e-002 3.655155e-002
      endloop
   endfacet
   facet normal 1.000000e+000 0.000000e+000 0.000000e+000
      outer loop
         vertex 1.650000e-001 -1.070584e-002 -3.646074e-002
         vertex 1.650000e-001 -1.039152e-002 3.655155e-002
         vertex 1.650000e-001 -1.070584e-002 3.646072e-002
      endloop
   endfacet
   facet normal 1.000000e+000 0.000000e+000 0.000000e+000
      outer loop
         vertex 1.650000e-001 -1.070584e-002 3.646072e-002
         vertex 1.650000e-001 -2.054435e-002 3.196763e-002
         vertex 1.650000e-001 -1.070584e-002 -3.646074e-002
      endloop
   endfacet
   facet normal 1.000000e+000 0.000000e+000 0.000000e+000
      outer loop
         vertex 1.650000e-001 -1.070584e-002 -3.646074e-002
         vertex 1.650000e-001 -2.054435e-002 3.196763e-002
         vertex 1.650000e-001 -2.871849e-002 2.488470e-002
      endloop
   endfacet
   facet normal 1.000000e+000 0.000000e+000 0.000000e+000
      outer loop
         vertex 1.650000e-001 -1.070584e-002 -3.646074e-002
         vertex 1.650000e-001 -2.871849e-002 2.488470e-002
         vertex 1.650000e-001 -2.054435e-002 -3.196764e-002
      endloop
   endfacet
   facet normal 1.000000e+000 0.000000e+000 0.000000e+000
      outer loop
         vertex 1.650000e-001 3.761321e-002 5.407955e-003
         vertex 1.650000e-001 -2.657760e-009 -3.800001e-002
         vertex 1.650000e-001 1.070583e-002 -3.646074e-002
      endloop
   endfacet
   facet normal 1.000000e+000 0.000000e+000 -0.000000e+000
      outer loop
         vertex 1.650000e-001 -2.657760e-009 -3.800001e-002
         vertex 1.650000e-001 3.761321e-002 5.407955e-003
         vertex 1.650000e-001 -1.070584e-002 -3.646074e-002
      endloop
   endfacet
   facet normal 1.000000e+000 0.000000e+000 0.000000e+000
      outer loop
         vertex 1.650000e-001 -1.070584e-002 -3.646074e-002
         vertex 1.650000e-001 3.761321e-002 5.407955e-003
         vertex 1.650000e-001 3.456601e-002 1.578576e-002
      endloop
   endfacet
   facet normal 1.000000e+000 0.000000e+000 0.000000e+000
      outer loop
         vertex 1.650000e-001 -1.070584e-002 -3.646074e-002
         vertex 1.650000e-001 3.456601e-002 1.578576e-002
         vertex 1.650000e-001 2.871848e-002 2.488470e-002
      endloop
   endfacet
   facet normal 1.000000e+000 0.000000e+000 0.000000e+000
      outer loop
         vertex 1.650000e-001 1.070583e-002 -3.646074e-002
         vertex 1.650000e-001 2.054435e-002 -3.196764e-002
         vertex 1.650000e-001 3.761321e-002 5.407955e-003
      endloop
   endfacet
   facet normal 1.000000e+000 0.000000e+000 0.000000e+000
      outer loop
         vertex 1.650000e-001 3.761321e-002 5.407955e-003
         vertex 1.650000e-001 2.054435e-002 -3.196764e-002
         vertex 1.650000e-001 2.871848e-002 -2.488472e-002
      endloop
   endfacet
   facet normal 1.000000e+000 0.000000e+000 0.000000e+000
      outer loop
         vertex 1.650000e-001 3.761321e-002 5.407955e-003
         vertex 1.650000e-001 2.871848e-002 -2.488472e-002
         vertex 1.650000e-001 3.456601e-002 -1.578578e-002
      endloop
   endfacet
   facet normal 1.000000e+000 0.000000e+000 0.000000e+000
      outer loop
         vertex 1.650000e-001 -2.054435e-002 -3.196764e-002
         vertex 1.650000e-001 -2.871849e-002 2.488470e-002
         vertex 1.650000e-001 -2.871849e-002 -2.488472e-002
      endloop
   endfacet
   facet normal 1.000000e+000 0.000000e+000 -0.000000e+000
      outer loop
         vertex 1.650000e-001 -2.871849e-002 -2.488472e-002
         vertex 1.650000e-001 -2.871849e-002 2.488470e-002
         vertex 1.650000e-001 -3.456602e-002 1.578576e-002
      endloop
   endfacet
   facet normal 1.000000e+000 0.000000e+000 0.000000e+000
      outer loop
         vertex 1.650000e-001 -2.871849e-002 -2.488472e-002
         vertex 1.650000e-001 -3.456602e-002 1.578576e-002
         vertex 1.650000e-001 -3.456602e-002 -1.578578e-002
      endloop
   endfacet
   facet normal 1.000000e+000 0.000000e+000 -0.000000e+000
      outer loop
         vertex 1.650000e-001 -3.456602e-002 -1.578578e-002
         vertex 1.650000e-001 -3.456602e-002 1.578576e-002
         vertex 1.650000e-001 -3.761322e-002 5.407955e-003
      endloop
   endfacet
   facet normal 1.000000e+000 0.000000e+000 0.000000e+000
      outer loop
         vertex 1.650000e-001 -3.456602e-002 -1.578578e-002
         vertex 1.650000e-001 -3.761322e-002 5.407955e-003
         vertex 1.650000e-001 -3.761322e-002 -5.407973e-003
      endloop
   endfacet
   facet normal -1.000000e+000 -2.075403e-016 1.603860e-016
      outer loop
         vertex 2.738217e-011 -3.761322e-002 5.407955e-003
         vertex 2.738216e-011 3.761321e-002 5.407955e-003
         vertex 2.738217e-011 -3.761322e-002 -5.407973e-003
      endloop
   endfacet
   facet normal -1.000000e+000 -2.075403e-016 1.603860e-016
      outer loop
         vertex 2.738217e-011 -3.761322e-002 -5.407973e-003
         vertex 2.738216e-011 3.761321e-002 5.407955e-003
         vertex 2.738216e-011 3.761321e-002 -5.407973e-003
      endloop
   endfacet
   facet normal -1.000000e+000 -2.075403e-016 6.093929e-017
      outer loop
         vertex 2.738216e-011 3.761321e-002 -5.407973e-003
         vertex 2.738216e-011 3.456601e-002 -1.578578e-002
         vertex 2.738217e-011 -3.761322e-002 -5.407973e-003
      endloop
   endfacet
   facet normal -1.000000e+000 -1.980061e-016 1.272507e-016
      outer loop
         vertex 2.738217e-011 -3.761322e-002 -5.407973e-003
         vertex 2.738216e-011 3.456601e-002 -1.578578e-002
         vertex 2.738216e-011 2.871848e-002 -2.488472e-002
      endloop
   endfacet
   facet normal -1.000000e+000 -1.757986e-016 2.028826e-016
      outer loop
         vertex 2.738217e-011 -3.761322e-002 -5.407973e-003
         vertex 2.738216e-011 2.871848e-002 -2.488472e-002
         vertex 2.738216e-011 2.054435e-002 -3.196764e-002
      endloop
   endfacet
   facet normal -1.000000e+000 -2.075403e-016 6.093930e-017
      outer loop
         vertex 2.738217e-011 -3.761322e-002 5.407955e-003
         vertex 2.738217e-011 -3.456602e-002 1.578576e-002
         vertex 2.738216e-011 3.761321e-002 5.407955e-003
      endloop
   endfacet
   facet normal -1.000000e+000 -1.980061e-016 1.272507e-016
      outer loop
         vertex 2.738216e-011 3.761321e-002 5.407955e-003
         vertex 2.738217e-011 -3.456602e-002 1.578576e-002
         vertex 2.738217e-011 -2.871849e-002 2.488470e-002
      endloop
   endfacet
   facet normal -1.000000e+000 -2.038651e-016 1.072969e-016
      outer loop
         vertex 2.738216e-011 3.761321e-002 5.407955e-003
         vertex 2.738217e-011 -2.871849e-002 2.488470e-002
         vertex 2.738216e-011 3.456601e-002 1.578576e-002
      endloop
   endfacet
   facet normal -1.000000e+000 -1.812132e-016 2.648438e-016
      outer loop
         vertex 2.738216e-011 3.456601e-002 1.578576e-002
         vertex 2.738217e-011 -2.871849e-002 2.488470e-002
         vertex 2.738216e-011 2.871848e-002 2.488470e-002
      endloop
   endfacet
   facet normal -1.000000e+000 -1.812133e-016 3.578491e-017
      outer loop
         vertex 2.738216e-011 2.871848e-002 2.488470e-002
         vertex 2.738217e-011 -2.871849e-002 2.488470e-002
         vertex 2.738217e-011 2.054435e-002 3.196763e-002
      endloop
   endfacet
   facet normal -1.000000e+000 -2.110950e-016 2.436167e-016
      outer loop
         vertex 2.738217e-011 2.054435e-002 3.196763e-002
         vertex 2.738217e-011 -2.871849e-002 2.488470e-002
         vertex 2.738217e-011 -2.054435e-002 3.196763e-002
      endloop
   endfacet
   facet normal -1.000000e+000 -2.110950e-016 3.099389e-016
      outer loop
         vertex 2.738217e-011 2.054435e-002 3.196763e-002
         vertex 2.738217e-011 -2.054435e-002 3.196763e-002
         vertex 2.738217e-011 1.070583e-002 3.646072e-002
      endloop
   endfacet
   facet normal -1.000000e+000 -1.620353e-016 -3.127847e-017
      outer loop
         vertex 2.738217e-011 1.070583e-002 3.646072e-002
         vertex 2.738217e-011 -2.054435e-002 3.196763e-002
         vertex 2.738217e-011 -1.070584e-002 3.646072e-002
      endloop
   endfacet
   facet normal -1.000000e+000 -1.620353e-016 0.000000e+000
      outer loop
         vertex 2.738217e-011 1.070583e-002 3.646072e-002
         vertex 2.738217e-011 -1.070584e-002 3.646072e-002
         vertex 2.738217e-011 -2.657760e-009 3.799999e-002
      endloop
   endfacet
   facet normal -1.000000e+000 -2.223858e-016 1.008708e-016
      outer loop
         vertex 2.738216e-011 2.054435e-002 -3.196764e-002
         vertex 2.738216e-011 1.070583e-002 -3.646074e-002
         vertex 2.738217e-011 -3.761322e-002 -5.407973e-003
      endloop
   endfacet
   facet normal -1.000000e+000 -1.849202e-016 1.591683e-016
      outer loop
         vertex 2.738217e-011 -3.761322e-002 -5.407973e-003
         vertex 2.738216e-011 1.070583e-002 -3.646074e-002
         vertex 2.738216e-011 -2.657760e-009 -3.800001e-002
      endloop
   endfacet
   facet normal -1.000000e+000 -1.300450e-016 2.224978e-016
      outer loop
         vertex 2.738217e-011 -3.761322e-002 -5.407973e-003
         vertex 2.738216e-011 -2.657760e-009 -3.800001e-002
         vertex 2.738216e-011 -1.070584e-002 -3.646074e-002
      endloop
   endfacet
   facet normal -1.000000e+000 -3.302551e-016 4.901468e-017
      outer loop
         vertex 2.738216e-011 -1.070584e-002 -3.646074e-002
         vertex 2.738217e-011 -2.054435e-002 -3.196764e-002
         vertex 2.738217e-011 -3.761322e-002 -5.407973e-003
      endloop
   endfacet
   facet normal -1.000000e+000 3.195232e-017 2.817913e-016
      outer loop
         vertex 2.738217e-011 -3.761322e-002 -5.407973e-003
         vertex 2.738217e-011 -2.054435e-002 -3.196764e-002
         vertex 2.738217e-011 -2.871849e-002 -2.488472e-002
      endloop
   endfacet
   facet normal -1.000000e+000 -6.135362e-016 -1.299340e-017
      outer loop
         vertex 2.738217e-011 -3.761322e-002 -5.407973e-003
         vertex 2.738217e-011 -2.871849e-002 -2.488472e-002
         vertex 2.738217e-011 -3.456602e-002 -1.578578e-002
      endloop
   endfacet
   facet normal 1.000000e+000 0.000000e+000 0.000000e+000
      outer loop
         vertex 1.432000e-001 -2.723509e-002 -2.650001e-002
         vertex 1.432000e-001 -7.500000e-002 -2.650001e-002
         vertex 1.432000e-001 -2.054435e-002 -3.196764e-002
      endloop
   endfacet
   facet normal 1.000000e+000 0.000000e+000 0.000000e+000
      outer loop
         vertex 1.432000e-001 -2.054435e-002 -3.196764e-002
         vertex 1.432000e-001 -7.500000e-002 -2.650001e-002
         vertex 1.432000e-001 -7.500000e-002 -5.750001e-002
      endloop
   endfacet
   facet normal 1.000000e+000 0.000000e+000 0.000000e+000
      outer loop
         vertex 1.432000e-001 7.500000e-002 -2.650001e-002
         vertex 1.432000e-001 2.723509e-002 -2.650001e-002
         vertex 1.432000e-001 7.500000e-002 -5.750001e-002
      endloop
   endfacet
   facet normal 1.000000e+000 0.000000e+000 0.000000e+000
      outer loop
         vertex 1.432000e-001 7.500000e-002 -5.750001e-002
         vertex 1.432000e-001 2.723509e-002 -2.650001e-002
         vertex 1.432000e-001 2.054435e-002 -3.196764e-002
      endloop
   endfacet
   facet normal 1.000000e+000 0.000000e+000 0.000000e+000
      outer loop
         vertex 1.432000e-001 2.054435e-002 -3.196764e-002
         vertex 1.432000e-001 1.070583e-002 -3.646074e-002
         vertex 1.432000e-001 7.500000e-002 -5.750001e-002
      endloop
   endfacet
   facet normal 1.000000e+000 0.000000e+000 0.000000e+000
      outer loop
         vertex 1.432000e-001 7.500000e-002 -5.750001e-002
         vertex 1.432000e-001 1.070583e-002 -3.646074e-002
         vertex 1.432000e-001 -2.657760e-009 -3.800001e-002
      endloop
   endfacet
   facet normal 1.000000e+000 0.000000e+000 0.000000e+000
      outer loop
         vertex 1.432000e-001 7.500000e-002 -5.750001e-002
         vertex 1.432000e-001 -2.657760e-009 -3.800001e-002
         vertex 1.432000e-001 -7.500000e-002 -5.750001e-002
      endloop
   endfacet
   facet normal 1.000000e+000 0.000000e+000 0.000000e+000
      outer loop
         vertex 1.432000e-001 -7.500000e-002 -5.750001e-002
         vertex 1.432000e-001 -2.657760e-009 -3.800001e-002
         vertex 1.432000e-001 -1.070584e-002 -3.646074e-002
      endloop
   endfacet
   facet normal 1.000000e+000 0.000000e+000 0.000000e+000
      outer loop
         vertex 1.432000e-001 -7.500000e-002 -5.750001e-002
         vertex 1.432000e-001 -1.070584e-002 -3.646074e-002
         vertex 1.432000e-001 -2.054435e-002 -3.196764e-002
      endloop
   endfacet
   facet normal -0.000000e+000 0.000000e+000 1.000000e+000
      outer loop
         vertex 1.192200e-001 -2.723509e-002 -2.650001e-002
         vertex 1.192200e-001 -7.500000e-002 -2.650001e-002
         vertex 1.432000e-001 -2.723509e-002 -2.650001e-002
      endloop
   endfacet
   facet normal 0.000000e+000 0.000000e+000 1.000000e+000
      outer loop
         vertex 1.432000e-001 -2.723509e-002 -2.650001e-002
         vertex 1.192200e-001 -7.500000e-002 -2.650001e-002
         vertex 1.432000e-001 -7.500000e-002 -2.650001e-002
      endloop
   endfacet
   facet normal 0.000000e+000 -0.000000e+000 1.000000e+000
      outer loop
         vertex 1.432000e-001 2.723509e-002 -2.650001e-002
         vertex 1.432000e-001 7.500000e-002 -2.650001e-002
         vertex 1.192200e-001 2.723509e-002 -2.650001e-002
      endloop
   endfacet
   facet normal 0.000000e+000 0.000000e+000 1.000000e+000
      outer loop
         vertex 1.192200e-001 2.723509e-002 -2.650001e-002
         vertex 1.432000e-001 7.500000e-002 -2.650001e-002
         vertex 1.192200e-001 7.500000e-002 -2.650001e-002
      endloop
   endfacet
   facet normal -0.000000e+000 1.000000e+000 0.000000e+000
      outer loop
         vertex 1.192200e-001 7.500000e-002 -2.650001e-002
         vertex 1.432000e-001 7.500000e-002 -2.650001e-002
         vertex 1.192200e-001 7.500000e-002 -5.750001e-002
      endloop
   endfacet
   facet normal 0.000000e+000 1.000000e+000 0.000000e+000
      outer loop
         vertex 1.192200e-001 7.500000e-002 -5.750001e-002
         vertex 1.432000e-001 7.500000e-002 -2.650001e-002
         vertex 1.432000e-001 7.500000e-002 -5.750001e-002
      endloop
   endfacet
   facet normal -0.000000e+000 -1.000000e+000 -0.000000e+000
      outer loop
         vertex 1.432000e-001 -7.500000e-002 -2.650001e-002
         vertex 1.192200e-001 -7.500000e-002 -2.650001e-002
         vertex 1.432000e-001 -7.500000e-002 -5.750001e-002
      endloop
   endfacet
   facet normal 0.000000e+000 -1.000000e+000 0.000000e+000
      outer loop
         vertex 1.432000e-001 -7.500000e-002 -5.750001e-002
         vertex 1.192200e-001 -7.500000e-002 -2.650001e-002
         vertex 1.192200e-001 -7.500000e-002 -5.750001e-002
      endloop
   endfacet
   facet normal 0.000000e+000 -0.000000e+000 -1.000000e+000
      outer loop
         vertex 1.432000e-001 7.500000e-002 -5.750001e-002
         vertex 1.432000e-001 -7.500000e-002 -5.750001e-002
         vertex 1.192200e-001 -2.446920e-002 -5.750001e-002
      endloop
   endfacet
   facet normal 0.000000e+000 0.000000e+000 -1.000000e+000
      outer loop
         vertex 1.192200e-001 -2.446920e-002 -5.750001e-002
         vertex 1.432000e-001 -7.500000e-002 -5.750001e-002
         vertex 1.192200e-001 -7.500000e-002 -5.750001e-002
      endloop
   endfacet
   facet normal 0.000000e+000 0.000000e+000 -1.000000e+000
      outer loop
         vertex 1.192200e-001 7.500000e-002 -5.750001e-002
         vertex 1.432000e-001 7.500000e-002 -5.750001e-002
         vertex 1.192200e-001 2.412863e-002 -5.750001e-002
      endloop
   endfacet
   facet normal 0.000000e+000 0.000000e+000 -1.000000e+000
      outer loop
         vertex 1.192200e-001 2.412863e-002 -5.750001e-002
         vertex 1.432000e-001 7.500000e-002 -5.750001e-002
         vertex 1.192200e-001 -2.446920e-002 -5.750001e-002
      endloop
   endfacet
   facet normal -0.000000e+000 -0.000000e+000 -1.000000e+000
      outer loop
         vertex 1.192200e-001 2.412863e-002 -5.750001e-002
         vertex 1.192200e-001 -2.446920e-002 -5.750001e-002
         vertex 8.121999e-002 2.412863e-002 -5.750001e-002
      endloop
   endfacet
   facet normal 0.000000e+000 0.000000e+000 -1.000000e+000
      outer loop
         vertex 8.121999e-002 2.412863e-002 -5.750001e-002
         vertex 1.192200e-001 -2.446920e-002 -5.750001e-002
         vertex 8.121999e-002 -2.446920e-002 -5.750001e-002
      endloop
   endfacet
   facet normal -1.000000e+000 0.000000e+000 0.000000e+000
      outer loop
         vertex 8.121999e-002 -2.446920e-002 -3.415793e-002
         vertex 8.121999e-002 -1.665042e-002 -3.415793e-002
         vertex 8.121999e-002 -2.446920e-002 -5.750001e-002
      endloop
   endfacet
   facet normal -1.000000e+000 0.000000e+000 0.000000e+000
      outer loop
         vertex 8.121999e-002 -2.446920e-002 -5.750001e-002
         vertex 8.121999e-002 -1.665042e-002 -3.415793e-002
         vertex 8.121999e-002 -1.070584e-002 -3.646074e-002
      endloop
   endfacet
   facet normal -1.000000e+000 0.000000e+000 0.000000e+000
      outer loop
         vertex 8.121999e-002 -2.446920e-002 -5.750001e-002
         vertex 8.121999e-002 -1.070584e-002 -3.646074e-002
         vertex 8.121999e-002 2.412863e-002 -5.750001e-002
      endloop
   endfacet
   facet normal -1.000000e+000 0.000000e+000 -0.000000e+000
      outer loop
         vertex 8.121999e-002 1.665042e-002 -3.415793e-002
         vertex 8.121999e-002 2.412863e-002 -3.415793e-002
         vertex 8.121999e-002 1.070583e-002 -3.646074e-002
      endloop
   endfacet
   facet normal -1.000000e+000 0.000000e+000 0.000000e+000
      outer loop
         vertex 8.121999e-002 1.070583e-002 -3.646074e-002
         vertex 8.121999e-002 2.412863e-002 -3.415793e-002
         vertex 8.121999e-002 2.412863e-002 -5.750001e-002
      endloop
   endfacet
   facet normal -1.000000e+000 0.000000e+000 -0.000000e+000
      outer loop
         vertex 8.121999e-002 1.070583e-002 -3.646074e-002
         vertex 8.121999e-002 2.412863e-002 -5.750001e-002
         vertex 8.121999e-002 -2.657760e-009 -3.800001e-002
      endloop
   endfacet
   facet normal -1.000000e+000 -0.000000e+000 -0.000000e+000
      outer loop
         vertex 8.121999e-002 -2.657760e-009 -3.800001e-002
         vertex 8.121999e-002 2.412863e-002 -5.750001e-002
         vertex 8.121999e-002 -1.070584e-002 -3.646074e-002
      endloop
   endfacet
   facet normal -0.000000e+000 0.000000e+000 1.000000e+000
      outer loop
         vertex 8.121999e-002 -1.665042e-002 -3.415793e-002
         vertex 8.121999e-002 -2.446920e-002 -3.415793e-002
         vertex 1.192200e-001 -1.665042e-002 -3.415793e-002
      endloop
   endfacet
   facet normal 0.000000e+000 0.000000e+000 1.000000e+000
      outer loop
         vertex 1.192200e-001 -1.665042e-002 -3.415793e-002
         vertex 8.121999e-002 -2.446920e-002 -3.415793e-002
         vertex 1.192200e-001 -2.446920e-002 -3.415793e-002
      endloop
   endfacet
   facet normal 0.000000e+000 -0.000000e+000 1.000000e+000
      outer loop
         vertex 1.192200e-001 1.665042e-002 -3.415793e-002
         vertex 1.192200e-001 2.412863e-002 -3.415793e-002
         vertex 8.121999e-002 1.665042e-002 -3.415793e-002
      endloop
   endfacet
   facet normal 0.000000e+000 0.000000e+000 1.000000e+000
      outer loop
         vertex 8.121999e-002 1.665042e-002 -3.415793e-002
         vertex 1.192200e-001 2.412863e-002 -3.415793e-002
         vertex 8.121999e-002 2.412863e-002 -3.415793e-002
      endloop
   endfacet
   facet normal 0.000000e+000 -1.000000e+000 0.000000e+000
      outer loop
         vertex 8.121999e-002 -2.446920e-002 -3.415793e-002
         vertex 8.121999e-002 -2.446920e-002 -5.750001e-002
         vertex 1.192200e-001 -2.446920e-002 -3.415793e-002
      endloop
   endfacet
   facet normal 0.000000e+000 -1.000000e+000 -0.000000e+000
      outer loop
         vertex 1.192200e-001 -2.446920e-002 -3.415793e-002
         vertex 8.121999e-002 -2.446920e-002 -5.750001e-002
         vertex 1.192200e-001 -2.446920e-002 -5.750001e-002
      endloop
   endfacet
   facet normal 0.000000e+000 1.000000e+000 0.000000e+000
      outer loop
         vertex 8.121999e-002 2.412863e-002 -5.750001e-002
         vertex 8.121999e-002 2.412863e-002 -3.415793e-002
         vertex 1.192200e-001 2.412863e-002 -5.750001e-002
      endloop
   endfacet
   facet normal 0.000000e+000 1.000000e+000 -0.000000e+000
      outer loop
         vertex 1.192200e-001 2.412863e-002 -5.750001e-002
         vertex 8.121999e-002 2.412863e-002 -3.415793e-002
         vertex 1.192200e-001 2.412863e-002 -3.415793e-002
      endloop
   endfacet
   facet normal -1.000000e+000 0.000000e+000 0.000000e+000
      outer loop
         vertex 1.217000e-001 -4.787609e-003 1.012432e-001
         vertex 1.217000e-001 -6.985694e-003 1.130455e-001
         vertex 1.217000e-001 -2.657756e-009 1.025261e-001
      endloop
   endfacet
   facet normal -1.000000e+000 0.000000e+000 0.000000e+000
      outer loop
         vertex 1.217000e-001 -2.657756e-009 1.025261e-001
         vertex 1.217000e-001 -6.985694e-003 1.130455e-001
         vertex 1.217000e-001 6.985689e-003 1.130455e-001
      endloop
   endfacet
   facet normal -1.000000e+000 0.000000e+000 0.000000e+000
      outer loop
         vertex 1.217000e-001 -2.657756e-009 1.025261e-001
         vertex 1.217000e-001 6.985689e-003 1.130455e-001
         vertex 1.217000e-001 4.787604e-003 1.012432e-001
      endloop
   endfacet
   facet normal -1.000000e+000 -0.000000e+000 0.000000e+000
      outer loop
         vertex 1.217000e-001 -4.787609e-003 1.012432e-001
         vertex 1.217000e-001 -8.292381e-003 9.773845e-002
         vertex 1.217000e-001 -6.985694e-003 1.130455e-001
      endloop
   endfacet
   facet normal -1.000000e+000 0.000000e+000 0.000000e+000
      outer loop
         vertex 1.217000e-001 -6.985694e-003 1.130455e-001
         vertex 1.217000e-001 -8.292381e-003 9.773845e-002
         vertex 1.217000e-001 -9.575216e-003 9.295084e-002
      endloop
   endfacet
   facet normal -1.000000e+000 0.000000e+000 0.000000e+000
      outer loop
         vertex 1.217000e-001 -6.985694e-003 1.130455e-001
         vertex 1.217000e-001 -9.575216e-003 9.295084e-002
         vertex 1.217000e-001 -2.500000e-002 5.133500e-002
      endloop
   endfacet
   facet normal -1.000000e+000 0.000000e+000 0.000000e+000
      outer loop
         vertex 1.217000e-001 -2.500000e-002 5.133500e-002
         vertex 1.217000e-001 -9.575216e-003 9.295084e-002
         vertex 1.217000e-001 -8.292381e-003 8.816323e-002
      endloop
   endfacet
   facet normal -1.000000e+000 0.000000e+000 0.000000e+000
      outer loop
         vertex 1.217000e-001 -2.500000e-002 5.133500e-002
         vertex 1.217000e-001 -8.292381e-003 8.816323e-002
         vertex 1.217000e-001 -4.787609e-003 8.465847e-002
      endloop
   endfacet
   facet normal -1.000000e+000 -0.000000e+000 0.000000e+000
      outer loop
         vertex 1.217000e-001 -2.054435e-002 3.196763e-002
         vertex 1.217000e-001 -2.500000e-002 2.861817e-002
         vertex 1.217000e-001 -2.500000e-002 5.133500e-002
      endloop
   endfacet
   facet normal -1.000000e+000 0.000000e+000 0.000000e+000
      outer loop
         vertex 1.217000e-001 4.787604e-003 8.465847e-002
         vertex 1.217000e-001 8.292375e-003 8.816323e-002
         vertex 1.217000e-001 2.500000e-002 5.133500e-002
      endloop
   endfacet
   facet normal -1.000000e+000 0.000000e+000 0.000000e+000
      outer loop
         vertex 1.217000e-001 2.500000e-002 5.133500e-002
         vertex 1.217000e-001 8.292375e-003 8.816323e-002
         vertex 1.217000e-001 9.575211e-003 9.295084e-002
      endloop
   endfacet
   facet normal -1.000000e+000 0.000000e+000 0.000000e+000
      outer loop
         vertex 1.217000e-001 2.500000e-002 5.133500e-002
         vertex 1.217000e-001 9.575211e-003 9.295084e-002
         vertex 1.217000e-001 6.985689e-003 1.130455e-001
      endloop
   endfacet
   facet normal -1.000000e+000 0.000000e+000 0.000000e+000
      outer loop
         vertex 1.217000e-001 6.985689e-003 1.130455e-001
         vertex 1.217000e-001 9.575211e-003 9.295084e-002
         vertex 1.217000e-001 8.292375e-003 9.773845e-002
      endloop
   endfacet
   facet normal -1.000000e+000 0.000000e+000 -0.000000e+000
      outer loop
         vertex 1.217000e-001 6.985689e-003 1.130455e-001
         vertex 1.217000e-001 8.292375e-003 9.773845e-002
         vertex 1.217000e-001 4.787604e-003 1.012432e-001
      endloop
   endfacet
   facet normal -1.000000e+000 0.000000e+000 0.000000e+000
      outer loop
         vertex 1.217000e-001 -2.054435e-002 3.196763e-002
         vertex 1.217000e-001 -2.500000e-002 5.133500e-002
         vertex 1.217000e-001 -1.070584e-002 3.646072e-002
      endloop
   endfacet
   facet normal -1.000000e+000 0.000000e+000 0.000000e+000
      outer loop
         vertex 1.217000e-001 -1.070584e-002 3.646072e-002
         vertex 1.217000e-001 -2.500000e-002 5.133500e-002
         vertex 1.217000e-001 -4.787609e-003 8.465847e-002
      endloop
   endfacet
   facet normal -1.000000e+000 0.000000e+000 0.000000e+000
      outer loop
         vertex 1.217000e-001 -1.070584e-002 3.646072e-002
         vertex 1.217000e-001 -4.787609e-003 8.465847e-002
         vertex 1.217000e-001 -2.657760e-009 3.799999e-002
      endloop
   endfacet
   facet normal -1.000000e+000 0.000000e+000 0.000000e+000
      outer loop
         vertex 1.217000e-001 -2.657760e-009 3.799999e-002
         vertex 1.217000e-001 -4.787609e-003 8.465847e-002
         vertex 1.217000e-001 -2.657756e-009 8.337563e-002
      endloop
   endfacet
   facet normal -1.000000e+000 0.000000e+000 0.000000e+000
      outer loop
         vertex 1.217000e-001 -2.657760e-009 3.799999e-002
         vertex 1.217000e-001 -2.657756e-009 8.337563e-002
         vertex 1.217000e-001 1.070583e-002 3.646072e-002
      endloop
   endfacet
   facet normal -1.000000e+000 0.000000e+000 0.000000e+000
      outer loop
         vertex 1.217000e-001 1.070583e-002 3.646072e-002
         vertex 1.217000e-001 -2.657756e-009 8.337563e-002
         vertex 1.217000e-001 4.787604e-003 8.465847e-002
      endloop
   endfacet
   facet normal -1.000000e+000 0.000000e+000 0.000000e+000
      outer loop
         vertex 1.217000e-001 1.070583e-002 3.646072e-002
         vertex 1.217000e-001 4.787604e-003 8.465847e-002
         vertex 1.217000e-001 2.054435e-002 3.196763e-002
      endloop
   endfacet
   facet normal -1.000000e+000 0.000000e+000 0.000000e+000
      outer loop
         vertex 1.217000e-001 2.054435e-002 3.196763e-002
         vertex 1.217000e-001 4.787604e-003 8.465847e-002
         vertex 1.217000e-001 2.500000e-002 5.133500e-002
      endloop
   endfacet
   facet normal -1.000000e+000 0.000000e+000 0.000000e+000
      outer loop
         vertex 1.217000e-001 2.054435e-002 3.196763e-002
         vertex 1.217000e-001 2.500000e-002 5.133500e-002
         vertex 1.217000e-001 2.500000e-002 2.861817e-002
      endloop
   endfacet
   facet normal 1.000000e+000 0.000000e+000 0.000000e+000
      outer loop
         vertex 2.677000e-001 1.565983e-002 5.095084e-002
         vertex 2.677000e-001 -1.575301e-002 5.095084e-002
         vertex 2.677000e-001 1.565983e-002 3.655155e-002
      endloop
   endfacet
   facet normal 1.000000e+000 0.000000e+000 0.000000e+000
      outer loop
         vertex 2.677000e-001 1.565983e-002 3.655155e-002
         vertex 2.677000e-001 -1.575301e-002 5.095084e-002
         vertex 2.677000e-001 -1.575301e-002 3.655155e-002
      endloop
   endfacet
   facet normal 1.000000e+000 0.000000e+000 -0.000000e+000
      outer loop
         vertex 1.347000e-001 -1.070584e-002 3.646072e-002
         vertex 1.347000e-001 -1.039152e-002 3.655155e-002
         vertex 1.347000e-001 -1.575301e-002 3.655155e-002
      endloop
   endfacet
   facet normal 1.000000e+000 0.000000e+000 0.000000e+000
      outer loop
         vertex 1.347000e-001 -2.500000e-002 5.133500e-002
         vertex 1.347000e-001 -2.500000e-002 2.861817e-002
         vertex 1.347000e-001 -2.054435e-002 3.196763e-002
      endloop
   endfacet
   facet normal 1.000000e+000 -0.000000e+000 0.000000e+000
      outer loop
         vertex 1.347000e-001 2.054435e-002 3.196763e-002
         vertex 1.347000e-001 2.500000e-002 2.861817e-002
         vertex 1.347000e-001 2.500000e-002 5.133500e-002
      endloop
   endfacet
   facet normal 1.000000e+000 0.000000e+000 0.000000e+000
      outer loop
         vertex 1.347000e-001 -1.070584e-002 3.646072e-002
         vertex 1.347000e-001 -1.575301e-002 3.655155e-002
         vertex 1.347000e-001 -2.054435e-002 3.196763e-002
      endloop
   endfacet
   facet normal 1.000000e+000 0.000000e+000 0.000000e+000
      outer loop
         vertex 1.347000e-001 -2.054435e-002 3.196763e-002
         vertex 1.347000e-001 -1.575301e-002 3.655155e-002
         vertex 1.347000e-001 -1.575301e-002 5.095084e-002
      endloop
   endfacet
   facet normal 1.000000e+000 0.000000e+000 -0.000000e+000
      outer loop
         vertex 1.347000e-001 -2.054435e-002 3.196763e-002
         vertex 1.347000e-001 -1.575301e-002 5.095084e-002
         vertex 1.347000e-001 -2.500000e-002 5.133500e-002
      endloop
   endfacet
   facet normal 1.000000e+000 0.000000e+000 0.000000e+000
      outer loop
         vertex 1.347000e-001 1.565983e-002 3.655155e-002
         vertex 1.347000e-001 1.039151e-002 3.655155e-002
         vertex 1.347000e-001 1.070583e-002 3.646072e-002
      endloop
   endfacet
   facet normal 1.000000e+000 0.000000e+000 0.000000e+000
      outer loop
         vertex 1.347000e-001 2.500000e-002 5.133500e-002
         vertex 1.347000e-001 4.787604e-003 8.465847e-002
         vertex 1.347000e-001 -2.657756e-009 8.337563e-002
      endloop
   endfacet
   facet normal 1.000000e+000 0.000000e+000 0.000000e+000
      outer loop
         vertex 1.347000e-001 -6.985694e-003 1.130455e-001
         vertex 1.347000e-001 -2.500000e-002 5.133500e-002
         vertex 1.347000e-001 -9.575216e-003 9.295084e-002
      endloop
   endfacet
   facet normal 1.000000e+000 0.000000e+000 0.000000e+000
      outer loop
         vertex 1.347000e-001 -9.575216e-003 9.295084e-002
         vertex 1.347000e-001 -8.292381e-003 9.773845e-002
         vertex 1.347000e-001 -6.985694e-003 1.130455e-001
      endloop
   endfacet
   facet normal 1.000000e+000 0.000000e+000 0.000000e+000
      outer loop
         vertex 1.347000e-001 -6.985694e-003 1.130455e-001
         vertex 1.347000e-001 -8.292381e-003 9.773845e-002
         vertex 1.347000e-001 -4.787609e-003 1.012432e-001
      endloop
   endfacet
   facet normal 1.000000e+000 -0.000000e+000 0.000000e+000
      outer loop
         vertex 1.347000e-001 -6.985694e-003 1.130455e-001
         vertex 1.347000e-001 -4.787609e-003 1.012432e-001
         vertex 1.347000e-001 6.985689e-003 1.130455e-001
      endloop
   endfacet
   facet normal 1.000000e+000 0.000000e+000 0.000000e+000
      outer loop
         vertex 1.347000e-001 6.985689e-003 1.130455e-001
         vertex 1.347000e-001 -4.787609e-003 1.012432e-001
         vertex 1.347000e-001 -2.657756e-009 1.025261e-001
      endloop
   endfacet
   facet normal 1.000000e+000 0.000000e+000 0.000000e+000
      outer loop
         vertex 1.347000e-001 6.985689e-003 1.130455e-001
         vertex 1.347000e-001 -2.657756e-009 1.025261e-001
         vertex 1.347000e-001 4.787604e-003 1.012432e-001
      endloop
   endfacet
   facet normal 1.000000e+000 -0.000000e+000 0.000000e+000
      outer loop
         vertex 1.347000e-001 1.070583e-002 3.646072e-002
         vertex 1.347000e-001 2.054435e-002 3.196763e-002
         vertex 1.347000e-001 1.565983e-002 3.655155e-002
      endloop
   endfacet
   facet normal 1.000000e+000 -0.000000e+000 0.000000e+000
      outer loop
         vertex 1.347000e-001 1.565983e-002 3.655155e-002
         vertex 1.347000e-001 2.054435e-002 3.196763e-002
         vertex 1.347000e-001 2.500000e-002 5.133500e-002
      endloop
   endfacet
   facet normal 1.000000e+000 0.000000e+000 0.000000e+000
      outer loop
         vertex 1.347000e-001 1.565983e-002 3.655155e-002
         vertex 1.347000e-001 2.500000e-002 5.133500e-002
         vertex 1.347000e-001 1.565983e-002 5.095084e-002
      endloop
   endfacet
   facet normal 1.000000e+000 0.000000e+000 -0.000000e+000
      outer loop
         vertex 1.347000e-001 1.565983e-002 5.095084e-002
         vertex 1.347000e-001 2.500000e-002 5.133500e-002
         vertex 1.347000e-001 -2.657756e-009 8.337563e-002
      endloop
   endfacet
   facet normal 1.000000e+000 0.000000e+000 0.000000e+000
      outer loop
         vertex 1.347000e-001 1.565983e-002 5.095084e-002
         vertex 1.347000e-001 -2.657756e-009 8.337563e-002
         vertex 1.347000e-001 -1.575301e-002 5.095084e-002
      endloop
   endfacet
   facet normal 1.000000e+000 0.000000e+000 0.000000e+000
      outer loop
         vertex 1.347000e-001 -1.575301e-002 5.095084e-002
         vertex 1.347000e-001 -2.657756e-009 8.337563e-002
         vertex 1.347000e-001 -4.787609e-003 8.465847e-002
      endloop
   endfacet
   facet normal 1.000000e+000 0.000000e+000 -0.000000e+000
      outer loop
         vertex 1.347000e-001 -1.575301e-002 5.095084e-002
         vertex 1.347000e-001 -4.787609e-003 8.465847e-002
         vertex 1.347000e-001 -2.500000e-002 5.133500e-002
      endloop
   endfacet
   facet normal 1.000000e+000 0.000000e+000 0.000000e+000
      outer loop
         vertex 1.347000e-001 -2.500000e-002 5.133500e-002
         vertex 1.347000e-001 -4.787609e-003 8.465847e-002
         vertex 1.347000e-001 -8.292381e-003 8.816323e-002
      endloop
   endfacet
   facet normal 1.000000e+000 0.000000e+000 0.000000e+000
      outer loop
         vertex 1.347000e-001 -2.500000e-002 5.133500e-002
         vertex 1.347000e-001 -8.292381e-003 8.816323e-002
         vertex 1.347000e-001 -9.575216e-003 9.295084e-002
      endloop
   endfacet
   facet normal 1.000000e+000 -0.000000e+000 0.000000e+000
      outer loop
         vertex 1.347000e-001 4.787604e-003 1.012432e-001
         vertex 1.347000e-001 8.292375e-003 9.773845e-002
         vertex 1.347000e-001 6.985689e-003 1.130455e-001
      endloop
   endfacet
   facet normal 1.000000e+000 0.000000e+000 0.000000e+000
      outer loop
         vertex 1.347000e-001 6.985689e-003 1.130455e-001
         vertex 1.347000e-001 8.292375e-003 9.773845e-002
         vertex 1.347000e-001 9.575211e-003 9.295084e-002
      endloop
   endfacet
   facet normal 1.000000e+000 0.000000e+000 0.000000e+000
      outer loop
         vertex 1.347000e-001 6.985689e-003 1.130455e-001
         vertex 1.347000e-001 9.575211e-003 9.295084e-002
         vertex 1.347000e-001 2.500000e-002 5.133500e-002
      endloop
   endfacet
   facet normal 1.000000e+000 0.000000e+000 0.000000e+000
      outer loop
         vertex 1.347000e-001 2.500000e-002 5.133500e-002
         vertex 1.347000e-001 9.575211e-003 9.295084e-002
         vertex 1.347000e-001 8.292375e-003 8.816323e-002
      endloop
   endfacet
   facet normal 1.000000e+000 0.000000e+000 0.000000e+000
      outer loop
         vertex 1.347000e-001 2.500000e-002 5.133500e-002
         vertex 1.347000e-001 8.292375e-003 8.816323e-002
         vertex 1.347000e-001 4.787604e-003 8.465847e-002
      endloop
   endfacet
   facet normal 0.000000e+000 1.000000e+000 0.000000e+000
      outer loop
         vertex 1.347000e-001 2.500000e-002 5.133500e-002
         vertex 1.347000e-001 2.500000e-002 2.861817e-002
         vertex 1.217000e-001 2.500000e-002 5.133500e-002
      endloop
   endfacet
   facet normal 0.000000e+000 1.000000e+000 0.000000e+000
      outer loop
         vertex 1.217000e-001 2.500000e-002 5.133500e-002
         vertex 1.347000e-001 2.500000e-002 2.861817e-002
         vertex 1.217000e-001 2.500000e-002 2.861817e-002
      endloop
   endfacet
   facet normal 0.000000e+000 9.599355e-001 2.802210e-001
      outer loop
         vertex 1.347000e-001 6.985689e-003 1.130455e-001
         vertex 1.347000e-001 2.500000e-002 5.133500e-002
         vertex 1.217000e-001 6.985689e-003 1.130455e-001
      endloop
   endfacet
   facet normal 0.000000e+000 9.599355e-001 2.802210e-001
      outer loop
         vertex 1.217000e-001 6.985689e-003 1.130455e-001
         vertex 1.347000e-001 2.500000e-002 5.133500e-002
         vertex 1.217000e-001 2.500000e-002 5.133500e-002
      endloop
   endfacet
   facet normal 0.000000e+000 -0.000000e+000 1.000000e+000
      outer loop
         vertex 1.347000e-001 -6.985694e-003 1.130455e-001
         vertex 1.347000e-001 6.985689e-003 1.130455e-001
         vertex 1.217000e-001 -6.985694e-003 1.130455e-001
      endloop
   endfacet
   facet normal 0.000000e+000 0.000000e+000 1.000000e+000
      outer loop
         vertex 1.217000e-001 -6.985694e-003 1.130455e-001
         vertex 1.347000e-001 6.985689e-003 1.130455e-001
         vertex 1.217000e-001 6.985689e-003 1.130455e-001
      endloop
   endfacet
   facet normal 0.000000e+000 -9.599355e-001 2.802210e-001
      outer loop
         vertex 1.347000e-001 -2.500000e-002 5.133500e-002
         vertex 1.347000e-001 -6.985694e-003 1.130455e-001
         vertex 1.217000e-001 -2.500000e-002 5.133500e-002
      endloop
   endfacet
   facet normal -2.800637e-016 -9.599355e-001 2.802210e-001
      outer loop
         vertex 1.217000e-001 -2.500000e-002 5.133500e-002
         vertex 1.347000e-001 -6.985694e-003 1.130455e-001
         vertex 1.217000e-001 -6.985694e-003 1.130455e-001
      endloop
   endfacet
   facet normal 0.000000e+000 -1.000000e+000 0.000000e+000
      outer loop
         vertex 1.347000e-001 -2.500000e-002 2.861817e-002
         vertex 1.347000e-001 -2.500000e-002 5.133500e-002
         vertex 1.217000e-001 -2.500000e-002 2.861817e-002
      endloop
   endfacet
   facet normal 0.000000e+000 -1.000000e+000 0.000000e+000
      outer loop
         vertex 1.217000e-001 -2.500000e-002 2.861817e-002
         vertex 1.347000e-001 -2.500000e-002 5.133500e-002
         vertex 1.217000e-001 -2.500000e-002 5.133500e-002
      endloop
   endfacet
   facet normal 1.000000e+000 0.000000e+000 0.000000e+000
      outer loop
         vertex 1.667000e-001 -8.292381e-003 8.816323e-002
         vertex 1.667000e-001 -4.787609e-003 8.465847e-002
         vertex 1.667000e-001 -2.657756e-009 8.337563e-002
      endloop
   endfacet
   facet normal 1.000000e+000 0.000000e+000 0.000000e+000
      outer loop
         vertex 1.667000e-001 -2.657756e-009 1.025261e-001
         vertex 1.667000e-001 -2.657756e-009 8.337563e-002
         vertex 1.667000e-001 4.787604e-003 8.465847e-002
      endloop
   endfacet
   facet normal 1.000000e+000 0.000000e+000 0.000000e+000
      outer loop
         vertex 1.667000e-001 -2.657756e-009 1.025261e-001
         vertex 1.667000e-001 -4.787609e-003 1.012432e-001
         vertex 1.667000e-001 -8.292381e-003 9.773845e-002
      endloop
   endfacet
   facet normal 1.000000e+000 0.000000e+000 -0.000000e+000
      outer loop
         vertex 1.667000e-001 -2.657756e-009 8.337563e-002
         vertex 1.667000e-001 -2.657756e-009 1.025261e-001
         vertex 1.667000e-001 -8.292381e-003 8.816323e-002
      endloop
   endfacet
   facet normal 1.000000e+000 0.000000e+000 0.000000e+000
      outer loop
         vertex 1.667000e-001 -8.292381e-003 8.816323e-002
         vertex 1.667000e-001 -2.657756e-009 1.025261e-001
         vertex 1.667000e-001 -8.292381e-003 9.773845e-002
      endloop
   endfacet
   facet normal 1.000000e+000 0.000000e+000 -0.000000e+000
      outer loop
         vertex 1.667000e-001 -8.292381e-003 8.816323e-002
         vertex 1.667000e-001 -8.292381e-003 9.773845e-002
         vertex 1.667000e-001 -9.575216e-003 9.295084e-002
      endloop
   endfacet
   facet normal 1.000000e+000 0.000000e+000 0.000000e+000
      outer loop
         vertex 1.667000e-001 8.292375e-003 9.773845e-002
         vertex 1.667000e-001 4.787604e-003 1.012432e-001
         vertex 1.667000e-001 9.575211e-003 9.295084e-002
      endloop
   endfacet
   facet normal 1.000000e+000 0.000000e+000 0.000000e+000
      outer loop
         vertex 1.667000e-001 9.575211e-003 9.295084e-002
         vertex 1.667000e-001 4.787604e-003 1.012432e-001
         vertex 1.667000e-001 -2.657756e-009 1.025261e-001
      endloop
   endfacet
   facet normal 1.000000e+000 0.000000e+000 0.000000e+000
      outer loop
         vertex 1.667000e-001 9.575211e-003 9.295084e-002
         vertex 1.667000e-001 -2.657756e-009 1.025261e-001
         vertex 1.667000e-001 8.292375e-003 8.816323e-002
      endloop
   endfacet
   facet normal 1.000000e+000 0.000000e+000 0.000000e+000
      outer loop
         vertex 1.667000e-001 8.292375e-003 8.816323e-002
         vertex 1.667000e-001 -2.657756e-009 1.025261e-001
         vertex 1.667000e-001 4.787604e-003 8.465847e-002
      endloop
   endfacet
   facet normal 0.000000e+000 2.588187e-001 9.659259e-001
      outer loop
         vertex 1.667000e-001 4.787604e-003 1.012432e-001
         vertex 1.347000e-001 -2.657756e-009 1.025261e-001
         vertex 1.667000e-001 -2.657756e-009 1.025261e-001
      endloop
   endfacet
   facet normal 0.000000e+000 -2.588187e-001 9.659259e-001
      outer loop
         vertex 1.667000e-001 -2.657756e-009 1.025261e-001
         vertex 1.347000e-001 -2.657756e-009 1.025261e-001
         vertex 1.347000e-001 -4.787609e-003 1.012432e-001
      endloop
   endfacet
   facet normal 0.000000e+000 -2.588187e-001 9.659259e-001
      outer loop
         vertex 1.667000e-001 -2.657756e-009 1.025261e-001
         vertex 1.347000e-001 -4.787609e-003 1.012432e-001
         vertex 1.667000e-001 -4.787609e-003 1.012432e-001
      endloop
   endfacet
   facet normal 0.000000e+000 -7.071065e-001 7.071071e-001
      outer loop
         vertex 1.667000e-001 -4.787609e-003 1.012432e-001
         vertex 1.347000e-001 -4.787609e-003 1.012432e-001
         vertex 1.347000e-001 -8.292381e-003 9.773845e-002
      endloop
   endfacet
   facet normal -1.404327e-017 -7.071065e-001 7.071071e-001
      outer loop
         vertex 1.667000e-001 -4.787609e-003 1.012432e-001
         vertex 1.347000e-001 -8.292381e-003 9.773845e-002
         vertex 1.667000e-001 -8.292381e-003 9.773845e-002
      endloop
   endfacet
   facet normal 0.000000e+000 -9.659259e-001 2.588189e-001
      outer loop
         vertex 1.667000e-001 -8.292381e-003 9.773845e-002
         vertex 1.347000e-001 -8.292381e-003 9.773845e-002
         vertex 1.347000e-001 -9.575216e-003 9.295084e-002
      endloop
   endfacet
   facet normal 0.000000e+000 -9.659259e-001 2.588189e-001
      outer loop
         vertex 1.667000e-001 -8.292381e-003 9.773845e-002
         vertex 1.347000e-001 -9.575216e-003 9.295084e-002
         vertex 1.667000e-001 -9.575216e-003 9.295084e-002
      endloop
   endfacet
   facet normal -0.000000e+000 -9.659259e-001 -2.588189e-001
      outer loop
         vertex 1.667000e-001 -9.575216e-003 9.295084e-002
         vertex 1.347000e-001 -9.575216e-003 9.295084e-002
         vertex 1.347000e-001 -8.292381e-003 8.816323e-002
      endloop
   endfacet
   facet normal 0.000000e+000 -9.659259e-001 -2.588189e-001
      outer loop
         vertex 1.667000e-001 -9.575216e-003 9.295084e-002
         vertex 1.347000e-001 -8.292381e-003 8.816323e-002
         vertex 1.667000e-001 -8.292381e-003 8.816323e-002
      endloop
   endfacet
   facet normal -0.000000e+000 -7.071065e-001 -7.071071e-001
      outer loop
         vertex 1.667000e-001 -8.292381e-003 8.816323e-002
         vertex 1.347000e-001 -8.292381e-003 8.816323e-002
         vertex 1.347000e-001 -4.787609e-003 8.465847e-002
      endloop
   endfacet
   facet normal 1.404327e-017 -7.071065e-001 -7.071071e-001
      outer loop
         vertex 1.667000e-001 -8.292381e-003 8.816323e-002
         vertex 1.347000e-001 -4.787609e-003 8.465847e-002
         vertex 1.667000e-001 -4.787609e-003 8.465847e-002
      endloop
   endfacet
   facet normal -0.000000e+000 -2.588187e-001 -9.659259e-001
      outer loop
         vertex 1.667000e-001 -4.787609e-003 8.465847e-002
         vertex 1.347000e-001 -4.787609e-003 8.465847e-002
         vertex 1.347000e-001 -2.657756e-009 8.337563e-002
      endloop
   endfacet
   facet normal 0.000000e+000 -2.588187e-001 -9.659259e-001
      outer loop
         vertex 1.667000e-001 -4.787609e-003 8.465847e-002
         vertex 1.347000e-001 -2.657756e-009 8.337563e-002
         vertex 1.667000e-001 -2.657756e-009 8.337563e-002
      endloop
   endfacet
   facet normal 0.000000e+000 2.588187e-001 -9.659259e-001
      outer loop
         vertex 1.667000e-001 -2.657756e-009 8.337563e-002
         vertex 1.347000e-001 -2.657756e-009 8.337563e-002
         vertex 1.347000e-001 4.787604e-003 8.465847e-002
      endloop
   endfacet
   facet normal 0.000000e+000 2.588187e-001 -9.659259e-001
      outer loop
         vertex 1.667000e-001 -2.657756e-009 8.337563e-002
         vertex 1.347000e-001 4.787604e-003 8.465847e-002
         vertex 1.667000e-001 4.787604e-003 8.465847e-002
      endloop
   endfacet
   facet normal 0.000000e+000 7.071065e-001 -7.071071e-001
      outer loop
         vertex 1.667000e-001 4.787604e-003 8.465847e-002
         vertex 1.347000e-001 4.787604e-003 8.465847e-002
         vertex 1.347000e-001 8.292375e-003 8.816323e-002
      endloop
   endfacet
   facet normal -1.404327e-017 7.071065e-001 -7.071071e-001
      outer loop
         vertex 1.667000e-001 4.787604e-003 8.465847e-002
         vertex 1.347000e-001 8.292375e-003 8.816323e-002
         vertex 1.667000e-001 8.292375e-003 8.816323e-002
      endloop
   endfacet
   facet normal 0.000000e+000 9.659259e-001 -2.588189e-001
      outer loop
         vertex 1.667000e-001 8.292375e-003 8.816323e-002
         vertex 1.347000e-001 8.292375e-003 8.816323e-002
         vertex 1.347000e-001 9.575211e-003 9.295084e-002
      endloop
   endfacet
   facet normal 0.000000e+000 9.659259e-001 -2.588189e-001
      outer loop
         vertex 1.667000e-001 8.292375e-003 8.816323e-002
         vertex 1.347000e-001 9.575211e-003 9.295084e-002
         vertex 1.667000e-001 9.575211e-003 9.295084e-002
      endloop
   endfacet
   facet normal 0.000000e+000 9.659259e-001 2.588189e-001
      outer loop
         vertex 1.667000e-001 9.575211e-003 9.295084e-002
         vertex 1.347000e-001 9.575211e-003 9.295084e-002
         vertex 1.347000e-001 8.292375e-003 9.773845e-002
      endloop
   endfacet
   facet normal 0.000000e+000 9.659259e-001 2.588189e-001
      outer loop
         vertex 1.667000e-001 9.575211e-003 9.295084e-002
         vertex 1.347000e-001 8.292375e-003 9.773845e-002
         vertex 1.667000e-001 8.292375e-003 9.773845e-002
      endloop
   endfacet
   facet normal 0.000000e+000 7.071065e-001 7.071071e-001
      outer loop
         vertex 1.667000e-001 8.292375e-003 9.773845e-002
         vertex 1.347000e-001 8.292375e-003 9.773845e-002
         vertex 1.347000e-001 4.787604e-003 1.012432e-001
      endloop
   endfacet
   facet normal 1.404327e-017 7.071065e-001 7.071071e-001
      outer loop
         vertex 1.667000e-001 8.292375e-003 9.773845e-002
         vertex 1.347000e-001 4.787604e-003 1.012432e-001
         vertex 1.667000e-001 4.787604e-003 1.012432e-001
      endloop
   endfacet
   facet normal 0.000000e+000 2.588187e-001 9.659259e-001
      outer loop
         vertex 1.667000e-001 4.787604e-003 1.012432e-001
         vertex 1.347000e-001 4.787604e-003 1.012432e-001
         vertex 1.347000e-001 -2.657756e-009 1.025261e-001
      endloop
   endfacet
   facet normal 3.491390e-018 2.588187e-001 9.659259e-001
      outer loop
         vertex 1.217000e-001 4.787604e-003 1.012432e-001
         vertex 7.770000e-002 -2.657756e-009 1.025261e-001
         vertex 1.217000e-001 -2.657756e-009 1.025261e-001
      endloop
   endfacet
   facet normal 0.000000e+000 -2.588187e-001 9.659259e-001
      outer loop
         vertex 1.217000e-001 -2.657756e-009 1.025261e-001
         vertex 7.770000e-002 -2.657756e-009 1.025261e-001
         vertex 7.770000e-002 -4.787609e-003 1.012432e-001
      endloop
   endfacet
   facet normal -3.491390e-018 -2.588187e-001 9.659259e-001
      outer loop
         vertex 1.217000e-001 -2.657756e-009 1.025261e-001
         vertex 7.770000e-002 -4.787609e-003 1.012432e-001
         vertex 1.217000e-001 -4.787609e-003 1.012432e-001
      endloop
   endfacet
   facet normal 0.000000e+000 -7.071065e-001 7.071071e-001
      outer loop
         vertex 1.217000e-001 -4.787609e-003 1.012432e-001
         vertex 7.770000e-002 -4.787609e-003 1.012432e-001
         vertex 7.770000e-002 -8.292381e-003 9.773845e-002
      endloop
   endfacet
   facet normal -6.982781e-018 -7.071065e-001 7.071071e-001
      outer loop
         vertex 1.217000e-001 -4.787609e-003 1.012432e-001
         vertex 7.770000e-002 -8.292381e-003 9.773845e-002
         vertex 1.217000e-001 -8.292381e-003 9.773845e-002
      endloop
   endfacet
   facet normal 0.000000e+000 -9.659259e-001 2.588189e-001
      outer loop
         vertex 1.217000e-001 -8.292381e-003 9.773845e-002
         vertex 7.770000e-002 -8.292381e-003 9.773845e-002
         vertex 7.770000e-002 -9.575216e-003 9.295084e-002
      endloop
   endfacet
   facet normal -3.491390e-018 -9.659259e-001 2.588189e-001
      outer loop
         vertex 1.217000e-001 -8.292381e-003 9.773845e-002
         vertex 7.770000e-002 -9.575216e-003 9.295084e-002
         vertex 1.217000e-001 -9.575216e-003 9.295084e-002
      endloop
   endfacet
   facet normal -0.000000e+000 -9.659259e-001 -2.588189e-001
      outer loop
         vertex 1.217000e-001 -9.575216e-003 9.295084e-002
         vertex 7.770000e-002 -9.575216e-003 9.295084e-002
         vertex 7.770000e-002 -8.292381e-003 8.816323e-002
      endloop
   endfacet
   facet normal 3.491390e-018 -9.659259e-001 -2.588189e-001
      outer loop
         vertex 1.217000e-001 -9.575216e-003 9.295084e-002
         vertex 7.770000e-002 -8.292381e-003 8.816323e-002
         vertex 1.217000e-001 -8.292381e-003 8.816323e-002
      endloop
   endfacet
   facet normal -0.000000e+000 -7.071065e-001 -7.071071e-001
      outer loop
         vertex 1.217000e-001 -8.292381e-003 8.816323e-002
         vertex 7.770000e-002 -8.292381e-003 8.816323e-002
         vertex 7.770000e-002 -4.787609e-003 8.465847e-002
      endloop
   endfacet
   facet normal 6.982781e-018 -7.071065e-001 -7.071071e-001
      outer loop
         vertex 1.217000e-001 -8.292381e-003 8.816323e-002
         vertex 7.770000e-002 -4.787609e-003 8.465847e-002
         vertex 1.217000e-001 -4.787609e-003 8.465847e-002
      endloop
   endfacet
   facet normal -0.000000e+000 -2.588187e-001 -9.659259e-001
      outer loop
         vertex 1.217000e-001 -4.787609e-003 8.465847e-002
         vertex 7.770000e-002 -4.787609e-003 8.465847e-002
         vertex 7.770000e-002 -2.657756e-009 8.337563e-002
      endloop
   endfacet
   facet normal 3.491390e-018 -2.588187e-001 -9.659259e-001
      outer loop
         vertex 1.217000e-001 -4.787609e-003 8.465847e-002
         vertex 7.770000e-002 -2.657756e-009 8.337563e-002
         vertex 1.217000e-001 -2.657756e-009 8.337563e-002
      endloop
   endfacet
   facet normal 0.000000e+000 2.588187e-001 -9.659259e-001
      outer loop
         vertex 1.217000e-001 -2.657756e-009 8.337563e-002
         vertex 7.770000e-002 -2.657756e-009 8.337563e-002
         vertex 7.770000e-002 4.787604e-003 8.465847e-002
      endloop
   endfacet
   facet normal -3.491390e-018 2.588187e-001 -9.659259e-001
      outer loop
         vertex 1.217000e-001 -2.657756e-009 8.337563e-002
         vertex 7.770000e-002 4.787604e-003 8.465847e-002
         vertex 1.217000e-001 4.787604e-003 8.465847e-002
      endloop
   endfacet
   facet normal 0.000000e+000 7.071065e-001 -7.071071e-001
      outer loop
         vertex 1.217000e-001 4.787604e-003 8.465847e-002
         vertex 7.770000e-002 4.787604e-003 8.465847e-002
         vertex 7.770000e-002 8.292375e-003 8.816323e-002
      endloop
   endfacet
   facet normal -6.982781e-018 7.071065e-001 -7.071071e-001
      outer loop
         vertex 1.217000e-001 4.787604e-003 8.465847e-002
         vertex 7.770000e-002 8.292375e-003 8.816323e-002
         vertex 1.217000e-001 8.292375e-003 8.816323e-002
      endloop
   endfacet
   facet normal 0.000000e+000 9.659259e-001 -2.588189e-001
      outer loop
         vertex 1.217000e-001 8.292375e-003 8.816323e-002
         vertex 7.770000e-002 8.292375e-003 8.816323e-002
         vertex 7.770000e-002 9.575211e-003 9.295084e-002
      endloop
   endfacet
   facet normal -3.491390e-018 9.659259e-001 -2.588189e-001
      outer loop
         vertex 1.217000e-001 8.292375e-003 8.816323e-002
         vertex 7.770000e-002 9.575211e-003 9.295084e-002
         vertex 1.217000e-001 9.575211e-003 9.295084e-002
      endloop
   endfacet
   facet normal 0.000000e+000 9.659259e-001 2.588189e-001
      outer loop
         vertex 1.217000e-001 9.575211e-003 9.295084e-002
         vertex 7.770000e-002 9.575211e-003 9.295084e-002
         vertex 7.770000e-002 8.292375e-003 9.773845e-002
      endloop
   endfacet
   facet normal 3.491390e-018 9.659259e-001 2.588189e-001
      outer loop
         vertex 1.217000e-001 9.575211e-003 9.295084e-002
         vertex 7.770000e-002 8.292375e-003 9.773845e-002
         vertex 1.217000e-001 8.292375e-003 9.773845e-002
      endloop
   endfacet
   facet normal 0.000000e+000 7.071065e-001 7.071071e-001
      outer loop
         vertex 1.217000e-001 8.292375e-003 9.773845e-002
         vertex 7.770000e-002 8.292375e-003 9.773845e-002
         vertex 7.770000e-002 4.787604e-003 1.012432e-001
      endloop
   endfacet
   facet normal 6.982781e-018 7.071065e-001 7.071071e-001
      outer loop
         vertex 1.217000e-001 8.292375e-003 9.773845e-002
         vertex 7.770000e-002 4.787604e-003 1.012432e-001
         vertex 1.217000e-001 4.787604e-003 1.012432e-001
      endloop
   endfacet
   facet normal 0.000000e+000 2.588187e-001 9.659259e-001
      outer loop
         vertex 1.217000e-001 4.787604e-003 1.012432e-001
         vertex 7.770000e-002 4.787604e-003 1.012432e-001
         vertex 7.770000e-002 -2.657756e-009 1.025261e-001
      endloop
   endfacet
   facet normal -1.000000e+000 0.000000e+000 0.000000e+000
      outer loop
         vertex 7.770000e-002 8.292375e-003 8.816323e-002
         vertex 7.770000e-002 4.787604e-003 8.465847e-002
         vertex 7.770000e-002 -2.657756e-009 8.337563e-002
      endloop
   endfacet
   facet normal -1.000000e+000 0.000000e+000 0.000000e+000
      outer loop
         vertex 7.770000e-002 -2.657756e-009 1.025261e-001
         vertex 7.770000e-002 4.787604e-003 1.012432e-001
         vertex 7.770000e-002 8.292375e-003 9.773845e-002
      endloop
   endfacet
   facet normal -1.000000e+000 0.000000e+000 0.000000e+000
      outer loop
         vertex 7.770000e-002 -2.657756e-009 8.337563e-002
         vertex 7.770000e-002 -4.787609e-003 8.465847e-002
         vertex 7.770000e-002 -2.657756e-009 1.025261e-001
      endloop
   endfacet
   facet normal -1.000000e+000 0.000000e+000 0.000000e+000
      outer loop
         vertex 7.770000e-002 -2.657756e-009 1.025261e-001
         vertex 7.770000e-002 -4.787609e-003 8.465847e-002
         vertex 7.770000e-002 -8.292381e-003 8.816323e-002
      endloop
   endfacet
   facet normal -1.000000e+000 0.000000e+000 0.000000e+000
      outer loop
         vertex 7.770000e-002 -2.657756e-009 8.337563e-002
         vertex 7.770000e-002 -2.657756e-009 1.025261e-001
         vertex 7.770000e-002 8.292375e-003 8.816323e-002
      endloop
   endfacet
   facet normal -1.000000e+000 0.000000e+000 0.000000e+000
      outer loop
         vertex 7.770000e-002 8.292375e-003 8.816323e-002
         vertex 7.770000e-002 -2.657756e-009 1.025261e-001
         vertex 7.770000e-002 8.292375e-003 9.773845e-002
      endloop
   endfacet
   facet normal -1.000000e+000 0.000000e+000 0.000000e+000
      outer loop
         vertex 7.770000e-002 8.292375e-003 8.816323e-002
         vertex 7.770000e-002 8.292375e-003 9.773845e-002
         vertex 7.770000e-002 9.575211e-003 9.295084e-002
      endloop
   endfacet
   facet normal -1.000000e+000 0.000000e+000 0.000000e+000
      outer loop
         vertex 7.770000e-002 -8.292381e-003 8.816323e-002
         vertex 7.770000e-002 -9.575216e-003 9.295084e-002
         vertex 7.770000e-002 -2.657756e-009 1.025261e-001
      endloop
   endfacet
   facet normal -1.000000e+000 0.000000e+000 0.000000e+000
      outer loop
         vertex 7.770000e-002 -2.657756e-009 1.025261e-001
         vertex 7.770000e-002 -9.575216e-003 9.295084e-002
         vertex 7.770000e-002 -8.292381e-003 9.773845e-002
      endloop
   endfacet
   facet normal -1.000000e+000 0.000000e+000 0.000000e+000
      outer loop
         vertex 7.770000e-002 -2.657756e-009 1.025261e-001
         vertex 7.770000e-002 -8.292381e-003 9.773845e-002
         vertex 7.770000e-002 -4.787609e-003 1.012432e-001
      endloop
   endfacet
endsolid